<svg width="35" height="35" viewBox="0 0 35 35" fill="none" xmlns="http://www.w3.org/2000/svg">
<path d="M26.769 18.5623C26.8166 23.7029 31.2791 25.4138 31.3283 25.4357C31.2906 25.556 30.6154 27.8737 28.9776 30.2671C27.5617 32.3365 26.092 34.3982 23.7773 34.4414C21.5029 34.4829 20.7714 33.0922 18.1708 33.0922C15.5709 33.0922 14.7585 34.3982 12.6052 34.4829C10.3707 34.5677 8.66908 32.2449 7.24146 30.1834C4.32443 25.9659 2.09509 18.2656 5.08841 13.0679C6.57537 10.4866 9.23318 8.85228 12.1177 8.81017C14.3117 8.76833 16.3827 10.2862 17.724 10.2862C19.0644 10.2862 21.5811 8.46071 24.2269 8.72868C25.3345 8.77489 28.4435 9.17603 30.4399 12.0985C30.2794 12.1983 26.7304 14.2644 26.769 18.5623ZM22.4944 5.9388C23.6805 4.50298 24.479 2.5036 24.2613 0.514893C22.5512 0.583525 20.4835 1.65431 19.2571 3.08958C18.1579 4.36024 17.1954 6.39462 17.4549 8.34396C19.361 8.49161 21.3079 7.37544 22.4944 5.9388Z" fill="black"/>
</svg>
