<svg width="35" height="35" viewBox="0 0 35 35" fill="none" xmlns="http://www.w3.org/2000/svg">
<path d="M31.801 14.6438H30.6263V14.5833H17.5013V20.4166H25.7431C24.5407 23.8124 21.3097 26.25 17.5013 26.25C12.6691 26.25 8.7513 22.3321 8.7513 17.5C8.7513 12.6678 12.6691 8.74996 17.5013 8.74996C19.7318 8.74996 21.7611 9.59142 23.3062 10.9659L27.4311 6.841C24.8265 4.41361 21.3426 2.91663 17.5013 2.91663C9.44766 2.91663 2.91797 9.44631 2.91797 17.5C2.91797 25.5536 9.44766 32.0833 17.5013 32.0833C25.5549 32.0833 32.0846 25.5536 32.0846 17.5C32.0846 16.5221 31.984 15.5677 31.801 14.6438Z" fill="#FFC107"/>
<path d="M4.59766 10.7121L9.38901 14.226C10.6855 11.0162 13.8253 8.74996 17.4995 8.74996C19.7301 8.74996 21.7593 9.59142 23.3044 10.9659L27.4293 6.841C24.8247 4.41361 21.3408 2.91663 17.4995 2.91663C11.8981 2.91663 7.04036 6.07902 4.59766 10.7121Z" fill="#FF3D00"/>
<path d="M17.4984 32.0833C21.2653 32.0833 24.688 30.6418 27.2758 28.2975L22.7623 24.4781C21.2489 25.629 19.3997 26.2515 17.4984 26.25C13.7053 26.25 10.4846 23.8314 9.27125 20.4561L4.51562 24.1201C6.92917 28.8429 11.8306 32.0833 17.4984 32.0833Z" fill="#4CAF50"/>
<path d="M31.7997 14.6439H30.625V14.5834H17.5V20.4167H25.7418C25.1666 22.0328 24.1306 23.4451 22.7617 24.4789L22.7639 24.4774L27.2774 28.2968C26.958 28.587 32.0833 24.7917 32.0833 17.5C32.0833 16.5222 31.9827 15.5677 31.7997 14.6439Z" fill="#1976D2"/>
</svg>
