<svg width="721" height="791" viewBox="0 0 721 791" fill="none" xmlns="http://www.w3.org/2000/svg">
<path d="M791 604.957H0V605.352H791V604.957Z" fill="#E6E6E6"/>
<path d="M704.908 615.129H668.127V615.525H704.908V615.129Z" fill="#E6E6E6"/>
<path d="M571.103 623.719H396.402V624.115H571.103V623.719Z" fill="#E6E6E6"/>
<path d="M321.668 623.925H304.535V624.321H321.668V623.925Z" fill="#E6E6E6"/>
<path d="M182.816 619.179H123.396V619.574H182.816V619.179Z" fill="#E6E6E6"/>
<path d="M652.811 615.129H618.039V615.525H652.811V615.129Z" fill="#E6E6E6"/>
<path d="M110.488 619.179H81.7109V619.574H110.488V619.179Z" fill="#E6E6E6"/>
<path d="M374.935 534.4H69.4666C67.0736 534.395 64.78 533.442 63.0894 531.748C61.3988 530.055 60.4492 527.759 60.4492 525.366V95.9641C60.4701 93.5848 61.4288 91.3099 63.1172 89.6333C64.8056 87.9568 67.0872 87.0141 69.4666 87.01H374.935C377.331 87.01 379.628 87.9617 381.323 89.6558C383.017 91.3498 383.968 93.6475 383.968 96.0432V525.366C383.968 527.762 383.017 530.06 381.323 531.754C379.628 533.448 377.331 534.4 374.935 534.4ZM69.4666 87.3264C67.1785 87.3306 64.9855 88.2425 63.3691 89.8619C61.7526 91.4814 60.8447 93.676 60.8447 95.9641V525.366C60.8447 527.655 61.7526 529.849 63.3691 531.469C64.9855 533.088 67.1785 534 69.4666 534.004H374.935C377.225 534 379.419 533.089 381.038 531.47C382.657 529.851 383.569 527.656 383.573 525.366V95.9641C383.569 93.6745 382.657 91.4799 381.038 89.861C379.419 88.242 377.225 87.3306 374.935 87.3264H69.4666Z" fill="#E6E6E6"/>
<path d="M717.137 534.4H411.652C409.258 534.395 406.963 533.442 405.27 531.749C403.576 530.056 402.623 527.761 402.619 525.366V95.9641C402.644 93.5834 403.606 91.3084 405.297 89.6323C406.988 87.9562 409.271 87.014 411.652 87.01H717.137C719.513 87.0182 721.791 87.9628 723.476 89.6389C725.161 91.315 726.117 93.5876 726.138 95.9641V525.366C726.138 527.757 725.191 530.05 723.504 531.743C721.816 533.436 719.527 534.391 717.137 534.4ZM411.652 87.3264C409.363 87.3306 407.168 88.242 405.549 89.861C403.93 91.4799 403.019 93.6745 403.015 95.9641V525.366C403.019 527.656 403.93 529.851 405.549 531.47C407.168 533.089 409.363 534 411.652 534.004H717.137C719.426 534 721.621 533.089 723.24 531.47C724.859 529.851 725.77 527.656 725.774 525.366V95.9641C725.77 93.6745 724.859 91.4799 723.24 89.861C721.621 88.242 719.426 87.3306 717.137 87.3264H411.652Z" fill="#E6E6E6"/>
<path d="M511.888 324.5H631.439V116.356L511.888 116.356V324.5Z" fill="#E6E6E6"/>
<path d="M505.433 324.5H624.984V116.356L505.433 116.356V324.5Z" fill="#F5F5F5"/>
<path d="M613.373 314.739V126.133H517.013V314.739H613.373Z" fill="#FAFAFA"/>
<path d="M521.902 314.739V126.133H517.014V314.739H521.902Z" fill="#E6E6E6"/>
<path d="M510.227 269.209H620.191V256.094H510.227V269.209Z" fill="#F5F5F5"/>
<path d="M308.712 324.5H428.264V116.356L308.712 116.356V324.5Z" fill="#E6E6E6"/>
<path d="M302.257 324.5H421.809V116.356L302.257 116.356V324.5Z" fill="#F5F5F5"/>
<path d="M410.213 314.739V126.133H313.853V314.739H410.213Z" fill="#FAFAFA"/>
<path d="M318.725 314.723V126.117H313.836V314.723H318.725Z" fill="#E6E6E6"/>
<path d="M307.051 269.209H417.016V256.094H307.051V269.209Z" fill="#F5F5F5"/>
<path d="M105.552 324.5H225.104L225.104 116.356L105.552 116.356L105.552 324.5Z" fill="#E6E6E6"/>
<path d="M99.0967 324.5H218.648L218.648 116.356L99.0967 116.356L99.0967 324.5Z" fill="#F5F5F5"/>
<path d="M207.037 314.723V126.117H110.677L110.677 314.723H207.037Z" fill="#FAFAFA"/>
<path d="M115.564 314.739L115.564 126.133H110.676L110.676 314.739H115.564Z" fill="#E6E6E6"/>
<path d="M103.891 269.209H213.855V256.094H103.891V269.209Z" fill="#F5F5F5"/>
<path d="M221.48 453.275C199.918 456.249 186.581 409.39 234.136 369.713C231.653 415.639 259.1 448.086 221.48 453.275Z" fill="#E6E6E6"/>
<path d="M205.66 514.64C174.4 492.73 195.789 416.177 292.528 421.73C250.7 478.08 260.176 552.83 205.66 514.64Z" fill="#E0E0E0"/>
<path d="M216.735 514.15C237.507 491.781 207.939 435.477 133.189 456.043C175.366 493.062 180.491 553.13 216.735 514.15Z" fill="#E0E0E0"/>
<path d="M190.061 481.498C182.879 472.749 174.399 462.909 176.456 452.5C178.512 442.09 183.654 434.354 179.62 423.28C174.715 409.991 175.665 394.14 183.954 395.468C192.244 396.797 201.53 406.542 201.356 419.372C201.214 431.839 209.266 435.825 217.018 442.454C224.77 449.082 227.507 458.78 228.883 468.272C231.288 483.349 250.826 480.501 256.014 493.584C261.377 506.24 250.683 523.088 233.582 526.964C216.48 530.84 204.299 533.292 192.64 519.909C180.79 505.813 200.692 494.027 190.061 481.498Z" fill="#F5F5F5"/>
<path d="M248.896 604.957H184.651L179.811 517.441H253.737L248.896 604.957Z" fill="#EBEBEB"/>
<path d="M258.531 515.653H175.018V525.082H258.531V515.653Z" fill="#EBEBEB"/>
<path d="M627.643 593.076H670.863V405.656H627.643V593.076Z" fill="#EBEBEB"/>
<path d="M288.951 604.957H662.557V593.076H288.951V604.957Z" fill="#EBEBEB"/>
<path d="M627.642 405.656H280.662V593.076H627.642V405.656Z" fill="#F5F5F5"/>
<path d="M610.651 428.722H297.652V490.198H610.651V428.722Z" fill="#EBEBEB"/>
<path d="M610.651 508.534H297.652V570.01H610.651V508.534Z" fill="#EBEBEB"/>
<path d="M356.788 463.668H551.517C552.631 463.664 553.699 463.219 554.488 462.431C555.276 461.643 555.721 460.575 555.725 459.46C555.725 458.343 555.282 457.271 554.493 456.479C553.704 455.687 552.634 455.241 551.517 455.236H356.788C355.671 455.241 354.6 455.687 353.812 456.479C353.023 457.271 352.58 458.343 352.58 459.46C352.584 460.575 353.029 461.643 353.817 462.431C354.605 463.219 355.673 463.664 356.788 463.668Z" fill="#F5F5F5"/>
<path d="M356.788 543.48H551.517C552.631 543.476 553.699 543.031 554.488 542.243C555.276 541.455 555.721 540.387 555.725 539.272C555.721 538.157 555.276 537.09 554.488 536.301C553.699 535.513 552.631 535.068 551.517 535.064H356.788C355.673 535.068 354.605 535.513 353.817 536.301C353.029 537.09 352.584 538.157 352.58 539.272C352.584 540.387 353.029 541.455 353.817 542.243C354.605 543.031 355.673 543.476 356.788 543.48Z" fill="#F5F5F5"/>
<path d="M531.854 378.304C531.854 378.304 581.37 425.226 610.764 378.114C610.764 378.114 602.949 362.974 594.706 361.677C586.464 360.38 586.132 374.776 578.886 370.33C571.641 365.885 563.177 350.682 558.558 358.798C553.938 366.913 547.594 355.349 540.681 354.684C533.768 354.02 531.854 378.304 531.854 378.304Z" fill="#F5F5F5"/>
<path d="M613.911 375.061C613.911 375.061 612.835 405.656 571.102 405.656C529.369 405.656 528.293 375.061 528.293 375.061H613.911Z" fill="#EBEBEB"/>
<path d="M402.792 359.114H426.823V405.656H356.266C356.266 393.315 361.167 381.48 369.892 372.752C378.617 364.024 390.451 359.118 402.792 359.114Z" fill="#F5F5F5"/>
<path d="M448.988 359.114H426.824V405.656H448.988V359.114Z" fill="#E6E6E6"/>
<path d="M395.5 676.4C564.904 676.4 702.234 668.382 702.234 658.492C702.234 648.601 564.904 640.583 395.5 640.583C226.095 640.583 88.7656 648.601 88.7656 658.492C88.7656 668.382 226.095 676.4 395.5 676.4Z" fill="#F5F5F5"/>
<path d="M344.876 312.856L343.832 314.438C343.515 314.897 343.183 315.308 342.867 315.736C342.218 316.59 341.538 317.318 340.857 318.188C339.481 319.77 338.089 321.352 336.602 322.744C333.628 325.601 330.456 328.244 327.11 330.654C323.767 333.063 320.251 335.22 316.589 337.108C314.739 338.01 312.903 338.944 310.989 339.703L308.126 340.842L307.319 341.143C306.876 341.285 306.465 341.443 305.974 341.554C305.018 341.793 304.033 341.904 303.048 341.886C301.168 341.873 299.319 341.412 297.653 340.541C296.314 339.842 295.083 338.952 293.999 337.899C292.281 336.205 290.797 334.29 289.585 332.204C287.513 328.592 285.821 324.775 284.538 320.814C282.049 313.346 280.27 305.661 279.223 297.859L285.835 296.404C287.038 299.868 288.272 303.443 289.632 306.892C290.993 310.341 292.353 313.774 293.935 317.033C295.375 320.178 297.091 323.191 299.061 326.034C299.844 327.213 300.786 328.278 301.861 329.198C302.17 329.452 302.517 329.655 302.889 329.8C303.111 329.8 303.095 329.8 302.984 329.8H302.874L303.396 329.546L305.753 328.407C307.335 327.648 308.838 326.825 310.356 325.908C313.352 324.113 316.246 322.153 319.026 320.039C321.768 317.883 324.373 315.559 326.825 313.078C328.059 311.876 329.23 310.594 330.353 309.297C330.907 308.648 331.46 308 331.935 307.351L332.694 306.386L333.311 305.563L344.876 312.856Z" fill="#525CEB"/>
<path d="M325.717 312.176L333.737 331.413L327.931 335.036L318.914 317.587L325.717 312.176Z" fill="#263238"/>
<path d="M348.419 295.976C335.336 295.802 322.047 312.366 321.715 312.777L332.061 337.108C332.061 337.108 355.079 318.425 356.234 311.116C357.436 303.507 356.709 296.087 348.419 295.976Z" fill="#407BFF"/>
<path d="M348.419 295.976C335.336 295.802 322.047 312.366 321.715 312.777L332.061 337.108C332.061 337.108 355.079 318.425 356.234 311.116C357.436 303.507 356.709 296.087 348.419 295.976Z" fill="#525CEB"/>
<path d="M284.759 293.888L275.71 286.848L273.875 300.707C273.875 300.707 282.671 304.155 287.354 301.165L287.227 298.634C287.18 297.712 286.935 296.812 286.509 295.993C286.084 295.174 285.487 294.456 284.759 293.888Z" fill="#525CEB"/>
<path d="M263.656 286.152L264.226 296.673L273.923 300.707L275.759 286.848L263.656 286.152Z" fill="#525CEB"/>
<path d="M461.944 292.765L475.929 289.269L466.152 279.286C466.152 279.286 457.087 282.988 459.302 290.898L461.944 292.765Z" fill="#525CEB"/>
<path d="M482.873 286.785L481.718 275.806L466.072 279.286L475.849 289.269L482.873 286.785Z" fill="#525CEB"/>
<path d="M416.334 644.618L403.314 645.867L392.445 615.145L405.465 613.879L416.334 644.618Z" fill="#525CEB"/>
<path d="M555.709 580.025L546.122 589.327L521.475 570.09L531.077 560.787L555.709 580.025Z" fill="#525CEB"/>
<path d="M543.353 587.523L550.725 574.44C550.849 574.215 551.051 574.043 551.293 573.956C551.534 573.869 551.799 573.872 552.038 573.965L563.239 578.3C563.516 578.42 563.764 578.598 563.968 578.82C564.172 579.043 564.327 579.306 564.423 579.593C564.518 579.879 564.552 580.183 564.523 580.483C564.493 580.784 564.401 581.075 564.251 581.337C561.609 585.862 560.107 587.903 556.863 593.661C554.87 597.205 550.978 605.321 548.226 610.209C545.473 615.097 540.49 612.629 541.202 610.351C544.366 600.116 543.828 594.405 542.973 589.88C542.817 589.074 542.951 588.239 543.353 587.523Z" fill="#263238"/>
<path d="M400.721 641.881H416.541C416.825 641.887 417.1 641.984 417.325 642.158C417.55 642.331 417.713 642.572 417.791 642.846L421.239 655.391C421.327 655.688 421.343 656 421.286 656.304C421.23 656.608 421.102 656.894 420.914 657.14C420.726 657.385 420.482 657.582 420.204 657.715C419.925 657.849 419.618 657.914 419.309 657.906C413.757 657.812 411.051 657.479 404.075 657.479C399.787 657.479 385.818 657.938 379.886 657.938C373.953 657.938 372.878 652.069 375.282 651.61C386.04 649.221 395.121 645.946 398.427 642.814C399.039 642.213 399.863 641.878 400.721 641.881Z" fill="#263238"/>
<path d="M392.461 615.145L398.045 630.997H411.524L405.481 613.879L392.461 615.145Z" fill="#525CEB"/>
<path d="M531.093 560.787L521.49 570.105L534.194 580.009L543.796 570.707L531.093 560.787Z" fill="#525CEB"/>
<path d="M335.684 300.2C335.684 300.2 330.305 304.298 366.549 375.029L418.217 358.339C410.56 337.599 406.352 324.642 402.397 278.242C394.733 279.09 387.141 280.491 379.68 282.434C371.701 284.442 363.864 286.974 356.218 290.012C346.347 294.252 335.684 300.2 335.684 300.2Z" fill="#407BFF"/>
<path d="M335.684 300.2C335.684 300.2 330.305 304.298 366.549 375.029L418.217 358.339C410.56 337.599 406.352 324.642 402.397 278.242C394.733 279.09 387.141 280.491 379.68 282.434C371.701 284.442 363.864 286.974 356.218 290.012C346.347 294.252 335.684 300.2 335.684 300.2Z" fill="#525CEB"/>
<path d="M368.748 256.759C369.697 264.795 372.687 279.097 379.6 282.435C379.6 282.435 379.996 290.756 365.979 295.28C350.555 300.264 356.139 290.012 356.139 290.012C363.907 285.266 361.661 279.097 358.307 273.718L368.748 256.759Z" fill="#525CEB"/>
<path d="M342.819 296.372C346.632 294.394 351.489 291.99 356.14 290.044C363.795 286.949 371.662 284.406 379.68 282.434C384.189 281.2 388.745 280.283 392.589 279.634C392.953 280.71 391.861 283.494 389.188 287.339C380.724 294.363 362.673 303.491 349.369 303.159C343.547 300.991 342.092 298.697 342.819 296.372Z" fill="#525CEB"/>
<path d="M389.171 287.339C383.424 295.042 376.555 301.841 368.794 307.509C362.186 306.705 355.673 305.247 349.352 303.159C362.593 303.491 380.644 294.363 389.171 287.339Z" fill="#263238"/>
<path d="M364.492 263.672L358.307 273.686C359.114 274.934 359.808 276.253 360.379 277.625C363.448 276.122 367.356 271.677 366.612 268.133C366.171 266.534 365.453 265.024 364.492 263.672Z" fill="#525CEB"/>
<path d="M371.88 241.92C372.671 255.161 373.304 260.745 367.482 268.307C358.734 279.666 342.297 277.799 337.551 265.017C333.295 253.547 332.71 233.82 344.939 227.049C347.626 225.539 350.654 224.74 353.736 224.728C356.818 224.717 359.852 225.492 362.551 226.982C365.249 228.471 367.522 230.625 369.155 233.239C370.788 235.853 371.726 238.841 371.88 241.92Z" fill="#525CEB"/>
<path d="M398.032 218.188C401.023 205.034 392.784 191.946 379.63 188.955C366.476 185.964 353.387 194.203 350.396 207.357C347.405 220.511 355.644 233.6 368.799 236.591C381.953 239.582 395.041 231.343 398.032 218.188Z" fill="#263238"/>
<path d="M368.115 223.378C373.146 226.701 375.646 231.795 373.7 234.753C371.754 237.711 366.09 237.427 361.044 234.104C355.997 230.782 353.513 225.688 355.459 222.73C357.405 219.771 363.069 220.056 368.115 223.378Z" fill="#407BFF"/>
<path opacity="0.6" d="M368.115 223.378C373.146 226.701 375.646 231.795 373.7 234.753C371.754 237.711 366.09 237.427 361.044 234.104C355.997 230.782 353.513 225.688 355.459 222.73C357.405 219.771 363.069 220.056 368.115 223.378Z" fill="#FAFAFA"/>
<path d="M365.441 250.953C366.754 247.915 362.182 238.898 363.163 235.528C360.537 233.076 333.911 241.745 336.063 235.417C338.12 229.343 344.606 221.29 359.413 224.66C375.233 228.267 376.61 241.951 374.838 246.317C373.066 250.684 370.551 255.224 370.551 255.224L365.441 250.953Z" fill="#263238"/>
<path d="M375.361 253.531C375.394 256.094 374.416 258.566 372.64 260.413C370.251 262.833 367.372 261.093 366.628 257.961C365.948 255.145 366.391 250.478 369.46 249.244C370.136 248.981 370.868 248.891 371.588 248.984C372.308 249.077 372.994 249.35 373.581 249.776C374.168 250.203 374.639 250.771 374.95 251.427C375.261 252.083 375.402 252.806 375.361 253.531Z" fill="#525CEB"/>
<path d="M366.548 375.029C366.548 375.029 342.597 491.844 355.949 530.366C369.839 570.438 392.446 626.377 392.446 626.377L413.565 625.175C413.565 625.175 396.163 554.491 391.876 522.566C386.007 478.555 411.145 360.696 411.145 360.696L366.548 375.029Z" fill="#407BFF"/>
<path opacity="0.5" d="M366.548 375.029C366.548 375.029 342.597 491.844 355.949 530.366C369.839 570.438 392.446 626.377 392.446 626.377L413.565 625.175C413.565 625.175 396.163 554.491 391.876 522.566C386.007 478.555 411.145 360.696 411.145 360.696L366.548 375.029Z" fill="#3D3B40"/>
<path d="M415.227 625.681L390.785 627.089L386.861 617.471L413.819 614.67L415.227 625.681Z" fill="#407BFF"/>
<path d="M415.227 625.681L390.785 627.089L386.861 617.471L413.819 614.67L415.227 625.681Z" fill="#525CEB"/>
<path d="M391.877 384.015C388.207 397.588 391.276 417.933 398.205 432.202C399.898 421.128 401.702 410.402 403.41 400.8C399.851 393.918 395.927 387.811 391.877 384.015Z" fill="#407BFF"/>
<path opacity="0.4" d="M391.877 384.015C388.207 397.588 391.276 417.933 398.205 432.202C399.898 421.128 401.702 410.402 403.41 400.8C399.851 393.918 395.927 387.811 391.877 384.015Z" fill="#3D3B40"/>
<path d="M380.186 370.615C380.186 370.615 415.749 455.616 439.305 502.285C458.289 540.032 528.735 579.534 528.735 579.534L541.391 566.119C541.391 566.119 488.742 519.371 475.612 493.774C433.594 411.842 442.232 376.057 418.248 358.339L380.186 370.615Z" fill="#407BFF"/>
<path opacity="0.5" d="M380.186 370.615C380.186 370.615 415.749 455.616 439.305 502.285C458.289 540.032 528.735 579.534 528.735 579.534L541.391 566.119C541.391 566.119 488.742 519.371 475.612 493.774C433.594 411.842 442.232 376.057 418.248 358.339L380.186 370.615Z" fill="#3D3B40"/>
<path d="M543.749 564.205L526.347 582.698L515.336 576.908L535.38 556.469L543.749 564.205Z" fill="#407BFF"/>
<path d="M543.749 564.205L526.347 582.698L515.336 576.908L535.38 556.469L543.749 564.205Z" fill="#525CEB"/>
<path d="M418.012 355.064L421.825 358.94C422.125 359.241 421.825 359.747 421.224 359.937L367.04 377.339C366.565 377.497 366.107 377.339 365.98 377.101L364.034 372.64C363.892 372.324 364.208 371.928 364.714 371.754L417.031 354.874C417.197 354.818 417.375 354.807 417.547 354.84C417.719 354.873 417.879 354.95 418.012 355.064Z" fill="#263238"/>
<path d="M412.901 363.18L414.293 362.737C414.578 362.642 414.736 362.42 414.673 362.262L412.078 356.456C412.078 356.298 411.699 356.235 411.43 356.314L410.022 356.773C409.753 356.773 409.579 357.073 409.658 357.247L412.252 363.037C412.3 363.211 412.585 363.275 412.901 363.18Z" fill="#407BFF"/>
<path opacity="0.6" d="M412.901 363.18L414.293 362.737C414.578 362.642 414.736 362.42 414.673 362.262L412.078 356.456C412.078 356.298 411.699 356.235 411.43 356.314L410.022 356.773C409.753 356.773 409.579 357.073 409.658 357.247L412.252 363.037C412.3 363.211 412.585 363.275 412.901 363.18Z" fill="#FAFAFA"/>
<path d="M371.137 376.658L372.545 376.2C372.814 376.105 372.988 375.899 372.909 375.725L370.315 369.935C370.236 369.761 369.951 369.698 369.666 369.793L368.258 370.235C367.989 370.33 367.815 370.536 367.894 370.71L370.489 376.5C370.568 376.674 370.853 376.737 371.137 376.658Z" fill="#407BFF"/>
<path opacity="0.6" d="M371.137 376.658L372.545 376.2C372.814 376.105 372.988 375.899 372.909 375.725L370.315 369.935C370.236 369.761 369.951 369.698 369.666 369.793L368.258 370.235C367.989 370.33 367.815 370.536 367.894 370.71L370.489 376.5C370.568 376.674 370.853 376.737 371.137 376.658Z" fill="#FAFAFA"/>
<path d="M392.003 369.919L393.395 369.46C393.679 369.46 393.853 369.16 393.774 368.986L391.18 363.196C391.101 363.022 390.8 362.958 390.531 363.053L389.123 363.512C388.854 363.591 388.68 363.813 388.759 363.971L391.354 369.777C391.432 369.867 391.538 369.93 391.654 369.956C391.771 369.982 391.894 369.969 392.003 369.919Z" fill="#407BFF"/>
<path opacity="0.6" d="M392.003 369.919L393.395 369.46C393.679 369.46 393.853 369.16 393.774 368.986L391.18 363.196C391.101 363.022 390.8 362.958 390.531 363.053L389.123 363.512C388.854 363.591 388.68 363.813 388.759 363.971L391.354 369.777C391.432 369.867 391.538 369.93 391.654 369.956C391.771 369.982 391.894 369.969 392.003 369.919Z" fill="#FAFAFA"/>
<path d="M352.39 248.026C352.517 249.086 352.058 250.035 351.362 250.114C350.666 250.193 349.985 249.402 349.859 248.327C349.732 247.251 350.191 246.317 350.887 246.238C351.583 246.159 352.264 246.95 352.39 248.026Z" fill="#263238"/>
<path d="M340.289 249.497C340.431 250.573 339.956 251.506 339.26 251.586C338.564 251.665 337.884 250.874 337.757 249.814C337.631 248.754 338.09 247.805 338.786 247.71C339.482 247.615 340.13 248.374 340.289 249.497Z" fill="#263238"/>
<path d="M339.101 247.741L336.443 247.314C336.443 247.314 338.01 249.165 339.101 247.741Z" fill="#263238"/>
<path d="M343.72 250.953C343.059 253.508 342.053 255.962 340.73 258.246C341.326 258.563 341.983 258.75 342.657 258.794C343.331 258.838 344.006 258.737 344.638 258.499L343.72 250.953Z" fill="#525CEB"/>
<path d="M348.878 262.248C348.801 262.249 348.727 262.222 348.669 262.173C348.611 262.123 348.573 262.055 348.561 261.979C348.556 261.894 348.582 261.81 348.634 261.743C348.687 261.676 348.762 261.631 348.846 261.615C350.179 261.483 351.462 261.038 352.591 260.318C353.721 259.598 354.665 258.623 355.348 257.471C355.365 257.432 355.39 257.396 355.421 257.367C355.452 257.338 355.488 257.315 355.528 257.301C355.568 257.286 355.61 257.279 355.653 257.281C355.695 257.283 355.737 257.294 355.775 257.312C355.813 257.331 355.846 257.357 355.874 257.388C355.901 257.42 355.922 257.456 355.936 257.496C355.949 257.536 355.954 257.578 355.951 257.62C355.948 257.661 355.936 257.702 355.918 257.739C355.199 258.996 354.188 260.062 352.971 260.847C351.754 261.631 350.367 262.112 348.925 262.248H348.878Z" fill="#263238"/>
<path d="M353.892 244.229C353.74 244.227 353.594 244.171 353.481 244.071C352.896 243.53 352.19 243.137 351.422 242.925C350.654 242.713 349.846 242.688 349.067 242.853C348.986 242.877 348.901 242.884 348.817 242.875C348.733 242.866 348.651 242.839 348.578 242.798C348.504 242.757 348.439 242.701 348.387 242.635C348.336 242.568 348.298 242.491 348.276 242.41C348.252 242.33 348.245 242.246 348.254 242.163C348.264 242.08 348.29 242 348.331 241.927C348.373 241.855 348.428 241.792 348.495 241.741C348.562 241.691 348.638 241.655 348.719 241.635C349.699 241.419 350.717 241.44 351.689 241.696C352.66 241.952 353.556 242.435 354.303 243.106C354.363 243.165 354.41 243.235 354.443 243.312C354.475 243.39 354.492 243.473 354.492 243.557C354.492 243.641 354.475 243.724 354.443 243.801C354.41 243.879 354.363 243.949 354.303 244.008C354.198 244.13 354.052 244.209 353.892 244.229Z" fill="#263238"/>
<path d="M334.038 244.593C333.945 244.615 333.847 244.615 333.753 244.593C333.607 244.513 333.498 244.379 333.448 244.22C333.398 244.061 333.411 243.888 333.485 243.739C333.917 242.834 334.559 242.045 335.357 241.438C336.155 240.83 337.085 240.42 338.072 240.243C338.238 240.225 338.404 240.273 338.534 240.376C338.664 240.48 338.749 240.631 338.768 240.796C338.779 240.879 338.774 240.964 338.752 241.045C338.73 241.126 338.692 241.202 338.641 241.268C338.589 241.334 338.525 241.39 338.452 241.431C338.379 241.472 338.298 241.498 338.215 241.508C337.434 241.654 336.699 241.984 336.072 242.471C335.444 242.958 334.942 243.588 334.608 244.308C334.546 244.402 334.461 244.477 334.361 244.527C334.261 244.578 334.15 244.6 334.038 244.593Z" fill="#263238"/>
<path d="M412.901 290.598L413.502 291.357L414.246 292.259C414.752 292.86 415.274 293.477 415.828 294.078C416.919 295.296 418.058 296.498 419.276 297.637C421.662 299.976 424.181 302.174 426.823 304.219C429.505 306.25 432.287 308.146 435.16 309.898C436.599 310.768 438.071 311.591 439.558 312.398L441.82 313.552L442.911 314.106C443.18 314.233 443.449 314.359 443.702 314.454C444.51 314.791 445.375 314.968 446.249 314.976C447.054 314.93 447.825 314.644 448.464 314.154C450.584 312.396 452.259 310.163 453.353 307.636C454.821 304.588 456.002 301.411 456.881 298.144C457.859 294.812 458.666 291.433 459.301 288.019L466.056 288.446C466.267 296.234 465.155 304.001 462.766 311.417C462.089 313.438 461.214 315.388 460.155 317.238C458.98 319.347 457.462 321.245 455.662 322.855C453.52 324.757 450.901 326.042 448.085 326.572C445.347 327.05 442.535 326.854 439.89 326.003C439.273 325.829 438.703 325.607 438.118 325.386L436.742 324.816L434.052 323.693C432.265 322.886 430.509 322.111 428.784 321.13C425.323 319.304 421.988 317.248 418.802 314.976C415.611 312.675 412.573 310.171 409.705 307.478C408.282 306.117 406.905 304.677 405.56 303.19C404.896 302.431 404.232 301.608 403.599 300.881L402.634 299.631C402.302 299.188 402.048 298.84 401.605 298.207L412.901 290.598Z" fill="#525CEB"/>
<path d="M424.117 298.935L414.214 315.562L409.389 311.005L418.533 294.347L424.117 298.935Z" fill="#263238"/>
<path d="M402.459 278.242C408.155 278.147 421.981 294.474 421.981 294.474L409.958 315.403C409.958 315.403 394.644 301.909 394.66 294.521C394.676 286.817 395.973 278.432 402.459 278.242Z" fill="#407BFF"/>
<path d="M402.459 278.242C408.155 278.147 421.981 294.474 421.981 294.474L409.958 315.403C409.958 315.403 394.644 301.909 394.66 294.521C394.676 286.817 395.973 278.432 402.459 278.242Z" fill="#525CEB"/>
<path d="M540.759 594.626C540.319 594.609 539.896 594.448 539.557 594.168C539.398 594.062 539.271 593.914 539.19 593.741C539.109 593.568 539.077 593.377 539.098 593.187C539.24 591.478 543.527 589.232 544.002 588.979C544.054 588.945 544.114 588.927 544.176 588.927C544.238 588.927 544.298 588.945 544.35 588.979C544.398 589.018 544.433 589.07 544.453 589.129C544.472 589.188 544.475 589.251 544.461 589.311C543.97 591.019 542.879 593.962 541.297 594.484C541.127 594.563 540.945 594.611 540.759 594.626ZM543.622 589.88C541.945 590.83 539.81 592.317 539.731 593.203C539.718 593.288 539.733 593.375 539.772 593.452C539.812 593.529 539.875 593.591 539.952 593.63C540.1 593.773 540.284 593.874 540.484 593.922C540.685 593.969 540.895 593.961 541.091 593.899C541.961 593.646 542.879 592.159 543.622 589.912V589.88Z" fill="#407BFF"/>
<path d="M540.174 590.482C539.479 590.541 538.784 590.368 538.196 589.991C538.006 589.827 537.877 589.603 537.831 589.355C537.785 589.108 537.825 588.852 537.943 588.631C538.028 588.401 538.166 588.195 538.344 588.027C538.522 587.86 538.737 587.736 538.972 587.666C540.807 587.049 544.161 588.9 544.303 588.979C544.355 589.007 544.398 589.048 544.428 589.098C544.459 589.148 544.476 589.205 544.477 589.263C544.475 589.318 544.459 589.371 544.431 589.418C544.404 589.465 544.365 589.504 544.319 589.532C543.027 590.158 541.61 590.483 540.174 590.482ZM539.842 588.172C539.617 588.169 539.392 588.201 539.177 588.267C539.031 588.312 538.897 588.39 538.785 588.494C538.673 588.598 538.585 588.726 538.529 588.868C538.37 589.248 538.529 589.406 538.529 589.517C539.241 590.118 541.867 589.865 543.37 589.248C542.274 588.666 541.076 588.3 539.842 588.172Z" fill="#407BFF"/>
<path d="M393.695 644.507C392.589 644.6 391.481 644.339 390.531 643.763C390.283 643.581 390.08 643.343 389.94 643.068C389.8 642.793 389.726 642.49 389.724 642.181C389.706 642.014 389.733 641.845 389.802 641.692C389.872 641.539 389.982 641.407 390.12 641.311C391.56 640.33 396.97 642.798 398.03 643.289C398.091 643.318 398.14 643.366 398.172 643.426C398.203 643.486 398.214 643.554 398.204 643.621C398.199 643.685 398.173 643.746 398.13 643.795C398.087 643.843 398.03 643.876 397.967 643.89C396.567 644.239 395.136 644.446 393.695 644.507ZM391.164 641.77C390.95 641.751 390.736 641.795 390.547 641.897C390.499 641.929 390.462 641.975 390.44 642.028C390.417 642.081 390.41 642.14 390.421 642.197C390.426 642.404 390.479 642.607 390.575 642.791C390.671 642.975 390.807 643.134 390.974 643.257C392.224 644.206 395.198 643.842 396.938 643.526C395.113 642.653 393.166 642.061 391.164 641.77Z" fill="#407BFF"/>
<path d="M397.967 643.953H397.84C396.052 643.225 392.445 640.33 392.651 638.828C392.651 638.495 392.904 638.084 393.727 637.989C396.891 637.578 398.22 643.352 398.267 643.589C398.28 643.646 398.278 643.705 398.262 643.76C398.245 643.816 398.214 643.866 398.172 643.906C398.11 643.942 398.038 643.959 397.967 643.953ZM394.012 638.59H393.806C393.474 638.59 393.284 638.733 393.268 638.891C393.157 639.745 395.641 642.055 397.476 643.036C397.081 641.675 395.91 638.59 394.012 638.59Z" fill="#407BFF"/>
<path d="M351.203 246.254L348.545 245.827C348.545 245.827 350.111 247.678 351.203 246.254Z" fill="#263238"/>
<path d="M252.233 135.704C249.433 139.216 234.009 143.345 221.748 142.206C217.524 169.923 232.284 201.832 232.284 201.832C232.284 201.832 264.32 198.019 265.111 184.825C265.902 171.631 252.233 135.704 252.233 135.704Z" fill="#407BFF"/>
<path opacity="0.5" d="M252.233 135.704C249.433 139.216 234.009 143.345 221.748 142.206C217.524 169.923 232.284 201.832 232.284 201.832C232.284 201.832 264.32 198.019 265.111 184.825C265.902 171.631 252.233 135.704 252.233 135.704Z" fill="#3D3B40"/>
<path d="M494.738 114.616C497.601 118.65 512.14 122.653 523.388 120.564C529.415 153.375 518.246 192.355 518.246 192.355C518.246 192.355 488.394 189.698 486.606 174.02C484.819 158.342 494.738 114.616 494.738 114.616Z" fill="#407BFF"/>
<path opacity="0.5" d="M494.738 114.616C497.601 118.65 512.14 122.653 523.388 120.564C529.415 153.375 518.246 192.355 518.246 192.355C518.246 192.355 488.394 189.698 486.606 174.02C484.819 158.342 494.738 114.616 494.738 114.616Z" fill="#3D3B40"/>
<path d="M284.758 398.775C284.531 398.808 284.299 398.796 284.076 398.739C283.853 398.683 283.643 398.582 283.459 398.444C283.275 398.306 283.121 398.132 283.004 397.934C282.888 397.735 282.812 397.516 282.781 397.288L245.208 130.768C245.178 130.533 245.194 130.294 245.258 130.065C245.321 129.836 245.43 129.622 245.577 129.437C245.725 129.251 245.908 129.096 246.117 128.983C246.325 128.869 246.554 128.798 246.79 128.775C247.019 128.744 247.251 128.758 247.474 128.816C247.697 128.875 247.907 128.977 248.09 129.117C248.274 129.256 248.428 129.431 248.545 129.63C248.661 129.829 248.737 130.049 248.768 130.278L286.34 396.781C286.371 397.017 286.354 397.256 286.291 397.485C286.228 397.713 286.119 397.927 285.971 398.113C285.824 398.299 285.64 398.453 285.432 398.567C285.224 398.681 284.995 398.751 284.758 398.775Z" fill="#407BFF"/>
<path d="M284.758 398.775C284.531 398.808 284.299 398.796 284.076 398.739C283.853 398.683 283.643 398.582 283.459 398.444C283.275 398.306 283.121 398.132 283.004 397.934C282.888 397.735 282.812 397.516 282.781 397.288L245.208 130.768C245.178 130.533 245.194 130.294 245.258 130.065C245.321 129.836 245.43 129.622 245.577 129.437C245.725 129.251 245.908 129.096 246.117 128.983C246.325 128.869 246.554 128.798 246.79 128.775C247.019 128.744 247.251 128.758 247.474 128.816C247.697 128.875 247.907 128.977 248.09 129.117C248.274 129.256 248.428 129.431 248.545 129.63C248.661 129.829 248.737 130.049 248.768 130.278L286.34 396.781C286.371 397.017 286.354 397.256 286.291 397.485C286.228 397.713 286.119 397.927 285.971 398.113C285.824 398.299 285.64 398.453 285.432 398.567C285.224 398.681 284.995 398.751 284.758 398.775Z" fill="#525CEB"/>
<path d="M463.795 378.968C464.03 378.999 464.269 378.982 464.498 378.919C464.727 378.855 464.94 378.747 465.126 378.599C465.312 378.452 465.467 378.268 465.58 378.06C465.694 377.852 465.765 377.622 465.788 377.386L503.44 110.882C503.473 110.654 503.461 110.421 503.405 110.197C503.348 109.973 503.248 109.762 503.11 109.577C502.972 109.392 502.798 109.236 502.6 109.118C502.401 109 502.181 108.922 501.953 108.889C501.717 108.858 501.478 108.875 501.249 108.938C501.021 109.002 500.807 109.111 500.621 109.258C500.435 109.406 500.281 109.589 500.167 109.797C500.053 110.006 499.983 110.235 499.959 110.471L462.308 376.975C462.244 377.436 462.364 377.903 462.643 378.276C462.921 378.649 463.335 378.898 463.795 378.968Z" fill="#407BFF"/>
<path d="M463.795 378.968C464.03 378.999 464.269 378.982 464.498 378.919C464.727 378.855 464.94 378.747 465.126 378.599C465.312 378.452 465.467 378.268 465.58 378.06C465.694 377.852 465.765 377.622 465.788 377.386L503.44 110.882C503.473 110.654 503.461 110.421 503.405 110.197C503.348 109.973 503.248 109.762 503.11 109.577C502.972 109.392 502.798 109.236 502.6 109.118C502.401 109 502.181 108.922 501.953 108.889C501.717 108.858 501.478 108.875 501.249 108.938C501.021 109.002 500.807 109.111 500.621 109.258C500.435 109.406 500.281 109.589 500.167 109.797C500.053 110.006 499.983 110.235 499.959 110.471L462.308 376.975C462.244 377.436 462.364 377.903 462.643 378.276C462.921 378.649 463.335 378.898 463.795 378.968Z" fill="#525CEB"/>
<path d="M243.706 136.4L250.825 188.733C250.868 189.063 250.983 189.381 251.161 189.663C251.339 189.945 251.576 190.185 251.855 190.367C252.135 190.549 252.451 190.668 252.781 190.717C253.111 190.765 253.447 190.741 253.767 190.647C269.682 186.091 358.179 163.373 494.121 177.833C494.698 177.899 495.279 177.746 495.748 177.403C496.218 177.059 496.54 176.552 496.652 175.982C499.215 162.725 503.628 124.962 504.752 115.296C504.819 114.687 504.645 114.075 504.266 113.593C503.887 113.111 503.335 112.797 502.727 112.718C484.47 110.408 359.856 96.597 245.304 133.869C244.785 134.041 244.343 134.387 244.051 134.848C243.76 135.31 243.638 135.858 243.706 136.4Z" fill="#407BFF"/>
<path d="M243.706 136.4L250.825 188.733C250.868 189.063 250.983 189.381 251.161 189.663C251.339 189.945 251.576 190.185 251.855 190.367C252.135 190.549 252.451 190.668 252.781 190.717C253.111 190.765 253.447 190.741 253.767 190.647C269.682 186.091 358.179 163.373 494.121 177.833C494.698 177.899 495.279 177.746 495.748 177.403C496.218 177.059 496.54 176.552 496.652 175.982C499.215 162.725 503.628 124.962 504.752 115.296C504.819 114.687 504.645 114.075 504.266 113.593C503.887 113.111 503.335 112.797 502.727 112.718C484.47 110.408 359.856 96.597 245.304 133.869C244.785 134.041 244.343 134.387 244.051 134.848C243.76 135.31 243.638 135.858 243.706 136.4Z" fill="#525CEB"/>
<path d="M266.535 145.544L274.034 143.962L279.334 157.741L280.678 142.617L288.161 141.035L294.726 154.546L294.821 139.691L302.288 138.109L301.308 164.844L293.572 166.426L286.152 151.208L284.57 168.23L276.834 169.812L266.535 145.544Z" fill="#FAFAFA"/>
<path d="M305.959 137.824L327.3 134.66L327.996 140.165L314.644 142.127L315.166 146.24L327.553 144.421L328.218 149.689L315.831 151.508L316.4 156.618L330.148 154.609L330.891 160.462L309.155 163.626L305.959 137.824Z" fill="#FAFAFA"/>
<path d="M332.727 134.043L340.731 133.173L342.44 152.742L354.922 151.397L355.492 157.725L334.926 159.94L332.727 134.043Z" fill="#FAFAFA"/>
<path d="M375.029 145.639L382.164 147.221C381.869 149.048 381.195 150.794 380.186 152.347C379.261 153.744 377.999 154.887 376.516 155.669C374.74 156.525 372.807 157.009 370.837 157.093C368.485 157.343 366.106 157.09 363.86 156.349C361.916 155.509 360.264 154.11 359.114 152.331C357.6 150.004 356.782 147.292 356.757 144.516C356.342 140.873 357.389 137.215 359.668 134.343C360.889 133.047 362.359 132.011 363.99 131.296C365.621 130.581 367.379 130.202 369.16 130.183C371.845 129.832 374.572 130.33 376.959 131.607C379.056 133.001 380.635 135.047 381.452 137.428L374.444 139.517C374.251 138.907 373.957 138.335 373.574 137.824C373.089 137.249 372.469 136.804 371.77 136.527C370.633 136.062 369.367 136.024 368.204 136.419C367.041 136.815 366.06 137.617 365.442 138.678C364.674 140.304 364.383 142.114 364.604 143.899C364.741 146.778 365.268 148.724 366.186 149.736C366.663 150.241 367.253 150.626 367.907 150.859C368.562 151.093 369.262 151.169 369.951 151.081C370.6 151.073 371.24 150.928 371.829 150.655C372.417 150.383 372.942 149.989 373.368 149.499C374.243 148.376 374.815 147.047 375.029 145.639Z" fill="#FAFAFA"/>
<path d="M385.09 142.617C384.967 140.798 385.205 138.971 385.791 137.244C386.378 135.517 387.301 133.924 388.508 132.556C389.801 131.282 391.337 130.282 393.025 129.613C394.712 128.945 396.517 128.622 398.332 128.664C400.133 128.485 401.952 128.673 403.679 129.216C405.406 129.76 407.004 130.649 408.378 131.828C409.61 133.109 410.568 134.629 411.191 136.294C411.814 137.959 412.089 139.734 412 141.51C412.137 144.108 411.649 146.701 410.576 149.072C409.608 151.046 408.085 152.695 406.194 153.818C403.994 155.046 401.516 155.689 398.996 155.685C396.508 155.859 394.012 155.459 391.703 154.514C389.717 153.601 388.06 152.098 386.957 150.211C385.66 147.895 385.015 145.271 385.09 142.617ZM393.111 142.396C392.971 144.4 393.53 146.39 394.693 148.028C395.187 148.586 395.805 149.02 396.498 149.295C397.19 149.57 397.938 149.677 398.68 149.61C399.439 149.627 400.191 149.472 400.882 149.157C401.572 148.842 402.182 148.375 402.666 147.79C403.77 145.951 404.242 143.801 404.011 141.668C404.147 139.758 403.584 137.864 402.429 136.337C401.924 135.781 401.297 135.349 400.597 135.074C399.897 134.8 399.144 134.691 398.395 134.755C397.651 134.752 396.917 134.918 396.246 135.238C395.575 135.559 394.985 136.026 394.519 136.606C393.406 138.314 392.909 140.351 393.111 142.38V142.396Z" fill="#FAFAFA"/>
<path d="M416.872 128.601H427.424L431.063 144.532L435.54 128.712L446.092 128.806L445.38 154.909H438.799L439.336 134.992L433.736 154.862H427.788L423.279 134.897L422.741 154.815H416.16L416.872 128.601Z" fill="#FAFAFA"/>
<path d="M451.882 129.06L473.349 130.025L473.017 135.593L459.57 134.992L459.301 139.216L471.767 139.77L471.435 145.006L458.969 144.452L458.653 149.61L472.479 150.211L472.1 156.128L450.236 155.147L451.882 129.06Z" fill="#FAFAFA"/>
</svg>
