<svg width="612" height="612" viewBox="0 0 612 612" fill="none" xmlns="http://www.w3.org/2000/svg">
<path d="M519.516 161.776C520.156 161.866 520.776 162.06 521.352 162.351C522.706 163.012 523.841 164.05 524.62 165.339C525.4 166.629 525.791 168.116 525.746 169.622C525.709 171.042 525.286 172.426 524.522 173.624C524.117 174.277 523.613 174.864 523.029 175.362C522.426 175.877 521.744 176.29 521.01 176.586C519.469 177.257 517.757 177.428 516.114 177.076C514.457 176.701 512.964 175.804 511.854 174.518C511.338 173.916 510.925 173.234 510.63 172.498C510.313 171.801 510.11 171.057 510.03 170.295C509.853 168.883 510.06 167.45 510.63 166.146C511.228 164.763 512.215 163.583 513.471 162.751C514.727 161.919 516.198 161.469 517.705 161.458C518.351 161.436 518.997 161.522 519.614 161.715C519.614 161.776 518.929 161.58 517.717 161.629C515.992 161.704 514.341 162.355 513.029 163.477C512.128 164.24 511.419 165.205 510.96 166.293C510.441 167.541 510.259 168.905 510.434 170.246C510.524 170.965 510.722 171.667 511.022 172.327C511.324 173.025 511.737 173.67 512.246 174.236C513.288 175.466 514.701 176.325 516.273 176.684C517.836 177.031 519.469 176.872 520.936 176.232C521.636 175.933 522.282 175.519 522.846 175.008C523.405 174.542 523.885 173.988 524.265 173.367C525.006 172.235 525.429 170.925 525.489 169.573C525.546 168.122 525.189 166.684 524.461 165.428C523.733 164.171 522.664 163.147 521.377 162.474C520.202 161.947 519.504 161.837 519.516 161.776Z" fill="#E0E0E0"/>
<path d="M525.734 153.477C525.728 153.388 525.728 153.298 525.734 153.208C525.734 153 525.734 152.731 525.734 152.376C525.734 151.617 525.734 150.527 525.734 149.108L525.795 149.181L518.732 147.639L518.855 147.578L516.994 151.531V151.605H516.909C515.345 151.673 513.797 151.948 512.306 152.425H512.221H512.159L508.94 149.328H509.185L503.065 153.22V153L504.534 157.113V157.211L504.46 157.296C503.405 158.447 502.504 159.731 501.78 161.115V161.213H501.658H497.3L497.484 161.054C496.994 163.269 496.455 165.656 495.917 168.116L495.807 167.884L499.748 169.744H499.858V169.867C499.921 171.425 500.189 172.968 500.654 174.457V174.579L500.556 174.677L497.471 177.774V177.504L501.339 183.624L501.082 183.527L505.195 182.058H505.317L505.427 182.143C506.566 183.204 507.842 184.105 509.222 184.824C509.283 184.91 509.112 184.628 509.344 185.02V189.377L509.173 189.157L516.223 190.748L515.978 190.871C516.603 189.536 517.202 188.227 517.851 186.917L517.912 186.807H518.047C519.601 186.747 521.141 186.48 522.625 186.011H522.747L522.845 186.109L525.942 189.194H525.672L531.792 185.338L531.707 185.571L530.238 181.458V181.348L530.324 181.25C531.386 180.106 532.291 178.826 533.016 177.443V177.345H537.496L537.325 177.492C537.888 175.044 538.414 172.67 538.916 170.43L539.014 170.626L535.073 168.741H534.987V168.643C534.934 167.08 534.67 165.532 534.204 164.04V163.955V163.894C535.33 162.767 536.333 161.752 537.3 160.797V160.968L533.457 154.848H533.579L529.455 156.28C528.588 155.478 527.65 154.756 526.652 154.126L525.893 153.673L525.648 153.514L525.917 153.636L526.688 154.053C527.712 154.664 528.672 155.378 529.552 156.182H529.479L533.579 154.689H533.653V154.763L537.545 160.883L537.606 160.98L537.533 161.054L534.595 164.016V163.869C535.081 165.387 535.356 166.964 535.415 168.557L535.33 168.422L539.283 170.283L539.406 170.344V170.479C538.916 172.706 538.39 175.044 537.839 177.529V177.676H533.298L533.469 177.578C532.729 178.993 531.807 180.306 530.728 181.482V181.274C531.205 182.621 531.707 183.992 532.196 185.387L532.257 185.546L532.111 185.632L525.991 189.512L525.844 189.598L525.721 189.475L522.649 186.427H522.869C521.347 186.911 519.766 187.187 518.169 187.247L518.353 187.125C517.741 188.423 517.129 189.744 516.48 191.066L516.407 191.225H516.235L509.185 189.72H509.014V185.179C509.246 185.571 509.075 185.289 509.136 185.375C507.721 184.64 506.412 183.718 505.244 182.633H505.464L501.352 184.09L501.18 184.151L501.094 184.004L497.227 177.884L497.129 177.737L497.251 177.615L500.336 174.518V174.738C499.857 173.214 499.581 171.634 499.516 170.038L499.638 170.222L495.721 168.288L495.574 168.214V168.055L497.165 161.005V160.846H501.682L501.511 160.944C502.255 159.535 503.181 158.231 504.265 157.064V157.247L502.808 153.122V153L502.93 152.914L509.05 149.059H509.161L509.246 149.144L512.343 152.241H512.196C513.712 151.767 515.285 151.499 516.872 151.445L516.762 151.519C517.447 150.099 518.084 148.765 518.647 147.578V147.492H518.732L525.77 149.12H525.831C525.831 150.527 525.831 151.568 525.831 152.363C525.831 152.718 525.831 153 525.831 153.196C525.804 153.291 525.771 153.385 525.734 153.477Z" fill="#E0E0E0"/>
<path d="M568.5 506.063C568.5 506.063 568.5 505.598 568.5 504.729C568.5 503.86 568.5 502.55 568.5 500.861C568.5 497.47 568.5 492.489 568.439 486.099C568.439 473.333 568.378 454.912 568.341 432.317L568.537 432.513L441.082 432.574L441.351 432.317C441.351 458.412 441.351 483.345 441.351 506.063L441.107 505.818L532.784 505.928L559.112 506.002H566.138H567.937H568.562H566.175H559.21L532.931 506.075L441.131 506.185H440.898V505.953C440.898 483.235 440.898 458.302 440.898 432.207V432.072H441.168H568.623H568.831V432.28C568.831 454.936 568.757 473.382 568.733 486.136C568.733 492.513 568.733 497.47 568.733 500.824C568.733 502.489 568.733 503.774 568.733 504.643C568.733 505.512 568.5 506.063 568.5 506.063Z" fill="#E0E0E0"/>
<path d="M568.546 441.24C568.546 441.387 540.039 441.497 504.898 441.497C469.757 441.497 441.25 441.387 441.25 441.24C441.25 441.093 469.745 440.983 504.898 440.983C540.051 440.983 568.546 441.093 568.546 441.24Z" fill="#E0E0E0"/>
<path d="M491.446 453.406H452.07V492.782H491.446V453.406Z" fill="#F5F5F5"/>
<path d="M559.256 459.894C559.065 459.92 558.872 459.92 558.681 459.894H557.016L550.896 459.967L530.749 460.053L510.602 459.967L504.482 459.894H502.817C502.627 459.92 502.433 459.92 502.242 459.894C502.433 459.872 502.626 459.872 502.817 459.894H504.482L510.602 459.808L530.749 459.734L550.896 459.808L557.016 459.894H558.681C558.872 459.872 559.065 459.872 559.256 459.894Z" fill="#E0E0E0"/>
<path d="M560.52 468.694C560.324 468.716 560.127 468.716 559.932 468.694H558.231L551.988 468.78L531.401 468.853L510.801 468.78L504.558 468.694H502.857C502.662 468.716 502.465 468.716 502.27 468.694C502.462 468.647 502.659 468.626 502.857 468.633H504.558L510.801 468.559L531.401 468.474L551.988 468.559L558.231 468.633H559.932C560.13 468.626 560.328 468.647 560.52 468.694Z" fill="#E0E0E0"/>
<path d="M560.52 477.482C560.325 477.509 560.127 477.509 559.932 477.482H558.231L551.988 477.556L531.401 477.641L510.801 477.556L504.558 477.482H502.857C502.662 477.509 502.464 477.509 502.27 477.482C502.465 477.461 502.662 477.461 502.857 477.482H504.558L510.801 477.397L531.401 477.323L552.025 477.36L558.268 477.446H559.969C560.153 477.439 560.338 477.451 560.52 477.482Z" fill="#E0E0E0"/>
<path d="M560.52 486.283C560.324 486.304 560.127 486.304 559.932 486.283H558.231L551.988 486.369L531.401 486.442L510.801 486.369L504.558 486.283H502.857C502.662 486.304 502.465 486.304 502.27 486.283C502.462 486.236 502.659 486.215 502.857 486.222H504.558L510.801 486.148L531.401 486.063L551.988 486.148L558.231 486.222H559.932C560.13 486.215 560.328 486.236 560.52 486.283Z" fill="#E0E0E0"/>
<path d="M237.384 140.851C258.072 120.163 258.072 86.621 237.384 65.9331C216.696 45.2452 183.155 45.2452 162.467 65.9331C141.779 86.621 141.779 120.163 162.467 140.851C183.155 161.539 216.696 161.539 237.384 140.851Z" fill="#F5F5F5"/>
<path d="M223.993 105.019C223.373 105.111 222.747 105.152 222.12 105.142L216.967 105.24C212.597 105.24 206.514 105.35 199.647 105.35H199.305V101.592C199.305 93.9175 199.305 86.9774 199.403 82.008C199.403 79.56 199.488 77.5771 199.513 76.0471C199.494 75.3183 199.539 74.5893 199.647 73.8684C199.748 74.5901 199.793 75.3185 199.782 76.0471C199.782 77.5771 199.782 79.5845 199.892 82.008C199.892 87.0386 199.99 93.9787 199.99 101.592C199.99 102.816 199.99 103.93 199.99 105.031L199.66 104.689C206.526 104.689 212.61 104.689 216.979 104.799L222.132 104.909C222.755 104.887 223.377 104.924 223.993 105.019Z" fill="#E0E0E0"/>
<path d="M199.793 59.1192C200.129 60.5747 200.245 62.0725 200.136 63.5623C200.244 65.0562 200.129 66.558 199.793 68.0177C199.457 66.558 199.341 65.0562 199.45 63.5623C199.341 62.0725 199.456 60.5747 199.793 59.1192Z" fill="#E0E0E0"/>
<path d="M223.991 66.2551C223.215 67.5142 222.249 68.6455 221.127 69.6089C220.168 70.7275 219.041 71.6897 217.785 72.4608C218.563 71.2068 219.529 70.0798 220.649 69.1193C221.614 68.0032 222.74 67.0378 223.991 66.2551Z" fill="#E0E0E0"/>
<path d="M238.043 81.6775C236.922 82.6388 235.689 83.4608 234.371 84.1255C233.177 84.9802 231.887 85.691 230.527 86.243C231.51 85.1304 232.693 84.2127 234.016 83.538C235.224 82.6614 236.592 82.0294 238.043 81.6775Z" fill="#E0E0E0"/>
<path d="M246.318 104.554C244.298 104.903 242.245 105.018 240.198 104.897C238.152 105.018 236.098 104.903 234.078 104.554C236.099 104.213 238.152 104.098 240.198 104.211C242.245 104.098 244.297 104.213 246.318 104.554Z" fill="#E0E0E0"/>
<path d="M162.168 103.746C160.278 104.084 158.356 104.199 156.439 104.089C154.523 104.198 152.601 104.083 150.711 103.746C152.601 103.409 154.523 103.294 156.439 103.404C158.356 103.293 160.278 103.408 162.168 103.746Z" fill="#E0E0E0"/>
<path d="M168.129 120.784C166.836 122.252 165.383 123.57 163.797 124.713C162.343 126.02 160.745 127.157 159.035 128.104C160.321 126.629 161.775 125.31 163.368 124.175C164.812 122.856 166.411 121.718 168.129 120.784Z" fill="#E0E0E0"/>
<path d="M182.805 133.955C181.95 135.727 180.964 137.433 179.856 139.059C178.938 140.801 177.895 142.474 176.734 144.065C177.293 142.156 178.148 140.347 179.268 138.704C180.193 136.946 181.387 135.344 182.805 133.955Z" fill="#E0E0E0"/>
<path d="M199.795 150.944C199.454 148.923 199.339 146.87 199.452 144.824C199.339 142.777 199.454 140.725 199.795 138.704C200.136 140.725 200.251 142.777 200.138 144.824C200.251 146.87 200.136 148.923 199.795 150.944Z" fill="#E0E0E0"/>
<path d="M225.949 142.853C224.095 142.009 222.401 140.85 220.943 139.426C219.342 138.172 217.964 136.658 216.867 134.946C218.448 136.184 219.96 137.508 221.396 138.912C222.983 140.143 224.503 141.459 225.949 142.853Z" fill="#E0E0E0"/>
<path d="M238.228 129.634C236.742 128.634 235.388 127.45 234.201 126.109C232.86 124.921 231.675 123.568 230.676 122.082C232.158 123.087 233.507 124.275 234.69 125.619C236.034 126.803 237.223 128.152 238.228 129.634Z" fill="#E0E0E0"/>
<path d="M167.567 87.4303C166.241 86.5887 165.045 85.5578 164.017 84.3703C162.83 83.3425 161.799 82.1467 160.957 80.8207C162.283 81.6624 163.479 82.6932 164.507 83.8807C165.694 84.9085 166.725 86.1044 167.567 87.4303Z" fill="#E0E0E0"/>
<path d="M182.721 71.4693C181.418 70.6736 180.243 69.6876 179.232 68.544C178.07 67.5243 177.067 66.336 176.258 65.0189C177.559 65.8354 178.731 66.8421 179.734 68.0054C180.897 69.0043 181.904 70.1719 182.721 71.4693Z" fill="#E0E0E0"/>
<path d="M77.9688 198.998H168.545C168.545 198.998 160.54 184.432 137.235 186.55C114.983 188.582 113.844 179.389 102.522 178.251C91.2002 177.113 81.7387 185.803 77.9688 198.998Z" fill="#F5F5F5"/>
<path d="M273.93 363.614H347.211C347.211 363.614 340.736 351.827 321.874 353.54C303.856 355.18 302.938 347.738 293.722 346.82C284.505 345.902 276.977 352.928 273.93 363.614Z" fill="#F5F5F5"/>
<path d="M587.816 552.588C587.816 551.738 461.695 551.01 306.014 551.01C150.334 551.01 24.1875 551.496 24.1875 552.588C24.1875 553.68 150.309 554.165 306.014 554.165C461.719 554.165 587.816 553.437 587.816 552.588Z" fill="#A6A6A6"/>
<path d="M557.151 177.639H379.328V296.71H557.151V177.639Z" fill="white"/>
<path d="M557.152 296.698C557.152 296.698 557.152 295.951 557.152 294.531V288.252C557.152 282.744 557.152 274.653 557.078 264.311C557.078 243.613 557.005 213.882 556.944 177.639L557.201 177.884L379.39 177.957L379.709 177.639C379.709 220.051 379.709 260.382 379.709 296.698L379.415 296.404L507.531 296.551L544.129 296.624H553.859H556.381H553.933H544.251L507.715 296.698L379.415 296.844H379.121V296.551C379.121 260.235 379.121 219.904 379.121 177.492V177.162H379.452L557.262 177.235H557.519V177.492C557.519 213.808 557.421 243.588 557.384 264.311C557.384 274.641 557.384 282.671 557.323 288.203C557.323 290.933 557.323 293.026 557.323 294.445C557.323 295.865 557.152 296.698 557.152 296.698Z" fill="#525CEB"/>
<path d="M379.328 188.263C379.328 188.08 419.108 187.945 468.166 187.945C517.224 187.945 557.004 188.08 557.004 188.263C557.004 188.447 517.236 188.582 468.166 188.582C419.096 188.582 379.328 188.496 379.328 188.263Z" fill="#525CEB"/>
<g opacity="0.3">
<path d="M386.345 182.902C386.345 183.186 386.26 183.463 386.102 183.699C385.944 183.935 385.72 184.118 385.458 184.227C385.195 184.335 384.907 184.362 384.629 184.306C384.35 184.25 384.095 184.112 383.896 183.911C383.696 183.709 383.56 183.453 383.507 183.174C383.453 182.896 383.483 182.607 383.593 182.346C383.703 182.084 383.889 181.861 384.126 181.706C384.363 181.55 384.641 181.468 384.925 181.47C385.112 181.47 385.298 181.507 385.471 181.579C385.644 181.652 385.801 181.757 385.933 181.89C386.065 182.024 386.169 182.182 386.24 182.355C386.311 182.529 386.346 182.715 386.345 182.902Z" fill="#525CEB"/>
</g>
<g opacity="0.3">
<path d="M391.227 182.902C391.227 183.186 391.143 183.463 390.985 183.699C390.827 183.935 390.603 184.118 390.341 184.227C390.078 184.335 389.79 184.362 389.511 184.306C389.233 184.25 388.978 184.112 388.778 183.911C388.579 183.709 388.443 183.453 388.389 183.174C388.335 182.896 388.366 182.607 388.476 182.346C388.586 182.084 388.772 181.861 389.009 181.706C389.246 181.55 389.524 181.468 389.808 181.47C389.995 181.47 390.181 181.507 390.354 181.579C390.527 181.652 390.684 181.757 390.816 181.89C390.948 182.024 391.052 182.182 391.123 182.355C391.194 182.529 391.229 182.715 391.227 182.902Z" fill="#525CEB"/>
</g>
<g opacity="0.3">
<path d="M396.036 182.902C396.036 183.186 395.952 183.463 395.794 183.699C395.636 183.935 395.412 184.118 395.149 184.227C394.887 184.335 394.598 184.362 394.32 184.306C394.042 184.25 393.787 184.112 393.587 183.911C393.387 183.709 393.252 183.453 393.198 183.174C393.144 182.896 393.174 182.607 393.284 182.346C393.395 182.084 393.58 181.861 393.817 181.706C394.054 181.55 394.332 181.468 394.616 181.47C394.804 181.47 394.989 181.507 395.162 181.579C395.335 181.652 395.493 181.757 395.625 181.89C395.757 182.024 395.861 182.182 395.931 182.355C396.002 182.529 396.038 182.715 396.036 182.902Z" fill="#525CEB"/>
</g>
<path d="M442.047 200.675H394.617V248.105H442.047V200.675Z" fill="#525CEB"/>
<path d="M532.769 214.078C532.769 214.261 514.263 214.396 491.447 214.396C468.632 214.396 450.125 214.261 450.125 214.078C450.125 213.894 468.632 213.759 491.447 213.759C514.263 213.759 532.769 213.906 532.769 214.078Z" fill="#525CEB"/>
<path d="M532.769 222.903C532.769 223.074 514.263 223.221 491.447 223.221C468.632 223.221 450.125 223.074 450.125 222.903C450.125 222.731 468.632 222.584 491.447 222.584C514.263 222.584 532.769 222.768 532.769 222.903Z" fill="#525CEB"/>
<path d="M532.769 231.715C532.769 231.887 514.263 232.034 491.447 232.034C468.632 232.034 450.125 231.887 450.125 231.715C450.125 231.544 468.632 231.397 491.447 231.397C514.263 231.397 532.769 231.532 532.769 231.715Z" fill="#525CEB"/>
<path d="M498.975 240.528C498.339 240.628 497.696 240.669 497.053 240.651L491.814 240.749C487.396 240.81 481.288 240.846 474.556 240.846C467.824 240.846 461.704 240.846 457.285 240.749L452.047 240.651C451.404 240.669 450.76 240.628 450.125 240.528C450.76 240.429 451.404 240.388 452.047 240.406L457.285 240.308C461.704 240.247 467.812 240.21 474.556 240.21C481.3 240.21 487.396 240.21 491.814 240.308L497.053 240.406C497.696 240.388 498.339 240.429 498.975 240.528Z" fill="#525CEB"/>
<g opacity="0.3">
<path d="M419.867 264.102H397.578V286.392H419.867V264.102Z" fill="#525CEB"/>
</g>
<path d="M460.297 264.102H438.008V286.392H460.297V264.102Z" fill="#525CEB"/>
<path d="M500.727 264.102H478.438V286.392H500.727V264.102Z" fill="#525CEB"/>
<path d="M541.156 264.102H518.867V286.392H541.156V264.102Z" fill="#525CEB"/>
<g opacity="0.3">
<path d="M442.047 200.675H394.617V248.105H442.047V200.675Z" fill="#525CEB"/>
</g>
<g opacity="0.3">
<path d="M460.297 264.102H438.008V286.392H460.297V264.102Z" fill="#525CEB"/>
</g>
<g opacity="0.3">
<path d="M500.727 264.102H478.438V286.392H500.727V264.102Z" fill="#525CEB"/>
</g>
<g opacity="0.3">
<path d="M541.156 264.102H518.867V286.392H541.156V264.102Z" fill="#525CEB"/>
</g>
<path d="M212.523 220.528H54.1133V284.874H212.523V220.528Z" fill="white"/>
<path d="M212.523 284.874C212.523 284.874 212.523 284.482 212.523 283.723C212.523 282.964 212.523 281.851 212.523 280.382C212.523 277.444 212.523 273.136 212.523 267.579C212.523 256.477 212.523 240.406 212.425 220.528L212.596 220.699L54.1982 220.773L54.4552 220.528C54.4552 243.062 54.4552 264.812 54.4552 284.874L54.2104 284.629L167.785 284.739L200.735 284.813H209.561H211.837H209.609H200.846L167.957 284.874L54.2104 284.984H53.8555V220.32H54.1125L212.51 220.406H212.694V220.577C212.694 240.504 212.621 256.599 212.596 267.738C212.596 273.27 212.596 277.53 212.596 280.504C212.596 281.948 212.596 283.05 212.596 283.809C212.596 284.568 212.523 284.874 212.523 284.874Z" fill="#525CEB"/>
<path d="M54.2734 229.206C54.2734 229.072 89.6838 228.949 133.344 228.949C177.004 228.949 212.439 229.072 212.439 229.206C212.439 229.341 177.028 229.451 133.344 229.451C89.6593 229.451 54.2734 229.341 54.2734 229.206Z" fill="#525CEB"/>
<g opacity="0.3">
<path d="M60.9066 225.326C60.9066 225.554 60.8391 225.776 60.7127 225.965C60.5863 226.155 60.4066 226.302 60.1963 226.389C59.9861 226.476 59.7548 226.499 59.5316 226.455C59.3084 226.41 59.1034 226.301 58.9425 226.14C58.7815 225.979 58.672 225.774 58.6276 225.551C58.5832 225.327 58.606 225.096 58.693 224.886C58.7801 224.676 58.9276 224.496 59.1168 224.37C59.306 224.243 59.5285 224.176 59.756 224.176C60.0612 224.176 60.3538 224.297 60.5696 224.513C60.7854 224.728 60.9066 225.021 60.9066 225.326Z" fill="#525CEB"/>
</g>
<g opacity="0.3">
<path d="M64.8714 225.326C64.8714 225.554 64.804 225.776 64.6775 225.965C64.5511 226.155 64.3714 226.302 64.1612 226.389C63.9509 226.476 63.7196 226.499 63.4964 226.455C63.2732 226.41 63.0682 226.301 62.9073 226.14C62.7464 225.979 62.6368 225.774 62.5924 225.551C62.548 225.327 62.5708 225.096 62.6579 224.886C62.745 224.676 62.8924 224.496 63.0817 224.37C63.2709 224.243 63.4933 224.176 63.7209 224.176C64.026 224.176 64.3187 224.297 64.5344 224.513C64.7502 224.728 64.8714 225.021 64.8714 225.326Z" fill="#525CEB"/>
</g>
<g opacity="0.3">
<path d="M68.7269 225.326C68.7269 225.554 68.6594 225.776 68.533 225.965C68.4066 226.155 68.2269 226.302 68.0166 226.389C67.8064 226.476 67.5751 226.499 67.3519 226.455C67.1287 226.41 66.9237 226.301 66.7628 226.14C66.6019 225.979 66.4923 225.774 66.4479 225.551C66.4035 225.327 66.4263 225.096 66.5134 224.886C66.6004 224.676 66.7479 224.496 66.9371 224.37C67.1263 224.243 67.3488 224.176 67.5763 224.176C67.8815 224.176 68.1741 224.297 68.3899 224.513C68.6057 224.728 68.7269 225.021 68.7269 225.326Z" fill="#525CEB"/>
</g>
<path d="M105.84 239.659H67.5781V277.921H105.84V239.659Z" fill="#525CEB"/>
<path d="M201.566 249.916C201.566 250.051 181.872 250.173 157.588 250.173C133.304 250.173 113.609 250.051 113.609 249.916C113.609 249.782 133.304 249.672 157.588 249.672C181.872 249.672 201.566 249.782 201.566 249.916Z" fill="#525CEB"/>
<path d="M201.566 257.713C201.566 257.848 181.872 257.958 157.588 257.958C133.304 257.958 113.609 257.848 113.609 257.713C113.609 257.579 133.304 257.456 157.588 257.456C181.872 257.456 201.566 257.579 201.566 257.713Z" fill="#525CEB"/>
<path d="M170.234 265.51C170.042 265.523 169.85 265.523 169.658 265.51H168.006L161.947 265.584L141.923 265.657L121.91 265.584L115.79 265.51H114.138C113.946 265.522 113.754 265.522 113.562 265.51C113.753 265.482 113.947 265.482 114.138 265.51H115.79L121.91 265.424L141.923 265.351L161.947 265.424L168.006 265.51H169.658C169.849 265.481 170.043 265.481 170.234 265.51Z" fill="#525CEB"/>
<g opacity="0.3">
<path d="M105.84 239.659H67.5781V277.921H105.84V239.659Z" fill="#2833DD"/>
</g>
<path d="M328.925 139.671C326.269 137.896 322.622 138.973 319.966 140.748C317.31 142.523 315.07 144.946 312.071 146.097C306.49 148.263 299.158 145.693 294.825 149.769C292.071 152.388 291.789 156.696 289.684 159.867C286.134 165.203 277.615 167.211 276.893 173.575C276.465 177.247 279.402 180.846 283.013 181.886C284.837 182.314 286.732 182.346 288.569 181.978C290.406 181.611 292.143 180.853 293.662 179.757C297.334 177.309 300.161 173.637 304.299 172.241C308.436 170.846 313.76 172.009 317.102 169.059C320.443 166.109 319.941 160.662 322.34 156.892C323.783 154.998 325.494 153.323 327.42 151.923C329.219 150.368 330.933 148.447 331.239 146.084C331.545 143.722 330.578 139.695 328.95 139.609" fill="#F5F5F5"/>
<path d="M259.956 399.709C260.116 399.624 260.605 400.113 261.07 400.811C261.535 401.509 261.792 402.17 261.646 402.268C261.499 402.366 261.009 401.876 260.532 401.166C260.054 400.456 259.81 399.807 259.956 399.709Z" fill="#263238"/>
<path d="M254.715 388.669C255.375 389.469 255.87 390.393 256.171 391.386C256.655 392.302 256.95 393.305 257.04 394.336C255.884 392.627 255.092 390.698 254.715 388.669Z" fill="#263238"/>
<path d="M251.877 376.772C252.661 378.68 253.041 380.731 252.991 382.794C252.502 381.88 252.206 380.876 252.122 379.844C251.835 378.847 251.752 377.802 251.877 376.772Z" fill="#263238"/>
<path d="M251.448 364.544C251.836 366.569 251.806 368.651 251.362 370.664C251.051 369.676 250.955 368.632 251.081 367.604C250.985 366.569 251.11 365.526 251.448 364.544Z" fill="#263238"/>
<path d="M253.37 352.512C253.469 353.544 253.357 354.585 253.04 355.572C252.918 356.601 252.593 357.595 252.085 358.497C251.987 357.466 252.099 356.424 252.416 355.437C252.54 354.409 252.864 353.415 253.37 352.512Z" fill="#263238"/>
<path d="M257.827 341.068C257.418 343.081 256.584 344.984 255.379 346.649C255.501 345.619 255.83 344.624 256.346 343.724C257.044 342.169 257.668 340.982 257.827 341.068Z" fill="#263238"/>
<path d="M264.571 330.859C264.232 331.841 263.699 332.744 263.004 333.516C262.453 334.39 261.753 335.16 260.936 335.792C260.764 335.682 261.474 334.495 262.49 333.136C263.506 331.777 264.387 330.749 264.571 330.859Z" fill="#263238"/>
<path d="M272.795 321.802C272.93 321.924 272.086 323.026 270.923 324.25C269.76 325.474 268.707 326.355 268.573 326.245C268.438 326.135 269.283 325.021 270.458 323.797C271.633 322.573 272.673 321.667 272.795 321.802Z" fill="#263238"/>
<path d="M281.413 313.087C281.548 313.209 280.679 314.311 279.492 315.535C278.304 316.759 277.24 317.616 277.117 317.493C276.995 317.371 277.852 316.269 279.039 315.045C280.226 313.821 281.291 312.965 281.413 313.087Z" fill="#263238"/>
<path d="M289.467 303.858C289.079 304.821 288.5 305.695 287.765 306.428C286.688 307.75 285.709 308.717 285.574 308.595C285.973 307.638 286.551 306.766 287.276 306.024C288.34 304.776 289.32 303.76 289.467 303.858Z" fill="#263238"/>
<path d="M295.709 293.356C295.6 294.394 295.247 295.392 294.681 296.269C294.293 297.239 293.685 298.106 292.906 298.803C293.144 297.795 293.558 296.838 294.13 295.975C294.505 295.019 295.039 294.134 295.709 293.356Z" fill="#263238"/>
<path d="M298.658 281.52C298.896 282.537 298.875 283.598 298.597 284.605C298.526 285.65 298.203 286.662 297.654 287.554C297.591 286.528 297.699 285.498 297.972 284.507C298.039 283.481 298.27 282.472 298.658 281.52Z" fill="#263238"/>
<path d="M297.778 269.366C298.32 270.258 298.632 271.272 298.684 272.316C298.935 273.332 298.935 274.395 298.684 275.412C298.298 274.456 298.075 273.443 298.023 272.413C297.777 271.417 297.694 270.388 297.778 269.366Z" fill="#263238"/>
<path d="M292.965 258.166C293.112 258.068 294.005 259.133 294.813 260.614C295.396 261.485 295.758 262.485 295.866 263.527C295.192 262.75 294.646 261.87 294.25 260.92C293.684 260.073 293.25 259.144 292.965 258.166Z" fill="#263238"/>
<path d="M284.433 249.476C285.431 249.789 286.338 250.339 287.077 251.079C288.387 252.181 289.244 253.282 289.121 253.405C288.999 253.527 287.897 252.646 286.673 251.569C285.449 250.492 284.323 249.623 284.433 249.476Z" fill="#263238"/>
<path d="M273.309 244.506C274.351 244.442 275.394 244.636 276.344 245.069C277.366 245.306 278.313 245.794 279.098 246.489C278.074 246.373 277.074 246.097 276.136 245.669C275.134 245.445 274.178 245.051 273.309 244.506Z" fill="#263238"/>
<path d="M261.141 243.955C262.077 243.488 263.118 243.269 264.164 243.319C265.203 243.165 266.263 243.275 267.248 243.637C266.254 243.896 265.227 244.003 264.201 243.955C263.187 244.116 262.154 244.116 261.141 243.955Z" fill="#263238"/>
<path d="M249.856 248.472C249.745 248.325 250.798 247.407 252.304 246.599C253.17 246.005 254.18 245.654 255.229 245.583C254.431 246.229 253.545 246.756 252.597 247.15C251.754 247.725 250.83 248.171 249.856 248.472Z" fill="#263238"/>
<path d="M241.449 257.26C241.715 256.246 242.233 255.316 242.955 254.555C243.995 253.197 245.072 252.303 245.195 252.426C245.317 252.548 244.472 253.65 243.457 254.947C242.441 256.244 241.596 257.346 241.449 257.26Z" fill="#263238"/>
<path d="M237.325 268.692C237.132 267.662 237.213 266.598 237.557 265.608C237.712 264.564 238.133 263.577 238.781 262.744C238.743 263.771 238.549 264.786 238.206 265.755C238.065 266.774 237.768 267.764 237.325 268.692Z" fill="#263238"/>
<path d="M238.78 280.749C238.131 279.916 237.71 278.929 237.556 277.885C237.204 276.896 237.12 275.832 237.311 274.8C237.735 275.734 238.028 276.723 238.18 277.738C238.524 278.707 238.726 279.721 238.78 280.749Z" fill="#263238"/>
<path d="M244.984 291.226C244.85 291.349 243.834 290.394 242.842 288.999C242.15 288.214 241.658 287.273 241.41 286.257C241.569 286.171 242.377 287.273 243.356 288.631C244.037 289.402 244.587 290.278 244.984 291.226Z" fill="#263238"/>
<path d="M253.995 299.488C253.006 299.157 252.107 298.604 251.363 297.873C250.029 296.808 249.111 295.767 249.234 295.633C250.168 296.068 251.021 296.66 251.755 297.383C253.065 298.436 254.105 299.341 253.995 299.488Z" fill="#263238"/>
<path d="M264.607 305.572C262.613 305.039 260.753 304.093 259.148 302.793C260.17 302.969 261.147 303.343 262.025 303.895C262.99 304.273 263.869 304.844 264.607 305.572Z" fill="#263238"/>
<path d="M276.257 309.28C275.218 309.399 274.166 309.273 273.184 308.913C272.151 308.76 271.169 308.361 270.32 307.75C271.352 307.766 272.373 307.952 273.344 308.301C274.365 308.452 275.351 308.784 276.257 309.28Z" fill="#263238"/>
<path d="M288.448 309.905C286.459 310.515 284.34 310.558 282.328 310.027C283.321 309.764 284.352 309.673 285.376 309.758C286.401 309.636 287.439 309.686 288.448 309.905Z" fill="#263238"/>
<path d="M300.225 306.759C298.543 307.981 296.548 308.698 294.473 308.827C295.335 308.264 296.287 307.85 297.288 307.603C298.212 307.156 299.205 306.871 300.225 306.759Z" fill="#263238"/>
<path d="M310.431 300.064C310.554 300.198 309.624 301.288 308.265 302.267C307.504 302.981 306.586 303.505 305.584 303.797C305.486 303.638 306.551 302.793 307.885 301.765C308.638 301.066 309.498 300.492 310.431 300.064Z" fill="#263238"/>
<path d="M318.402 290.81C318.118 291.814 317.603 292.736 316.896 293.503C315.88 294.874 314.864 295.816 314.73 295.706C314.595 295.596 315.391 294.482 316.394 293.124C317.398 291.765 318.243 290.712 318.402 290.81Z" fill="#263238"/>
<path d="M323.699 279.794C323.695 280.839 323.439 281.868 322.952 282.793C322.316 284.384 321.569 285.559 321.41 285.474C321.558 284.456 321.876 283.471 322.353 282.56C322.647 281.571 323.102 280.636 323.699 279.794Z" fill="#263238"/>
<path d="M326.077 267.811C326.343 269.869 326.056 271.96 325.245 273.87C325.211 271.82 325.492 269.776 326.077 267.811Z" fill="#263238"/>
<path d="M325.757 255.583C326.156 256.54 326.348 257.571 326.32 258.607C326.495 259.63 326.466 260.679 326.234 261.691C325.66 259.705 325.497 257.622 325.757 255.571V255.583Z" fill="#263238"/>
<path d="M323.136 243.637C323.704 244.508 324.083 245.488 324.25 246.514C324.619 247.482 324.785 248.515 324.74 249.549C324.178 248.675 323.8 247.697 323.626 246.673C323.257 245.705 323.09 244.672 323.136 243.637Z" fill="#263238"/>
<path d="M318.414 232.327C318.573 232.242 319.308 233.417 320.042 234.947C320.56 235.849 320.885 236.85 320.997 237.884C319.824 236.193 318.951 234.314 318.414 232.327Z" fill="#263238"/>
<path d="M312.391 221.666C312.55 221.568 313.358 222.682 314.214 224.114C314.81 224.955 315.226 225.909 315.438 226.917C314.677 226.228 314.057 225.397 313.615 224.469C313.029 223.623 312.614 222.671 312.391 221.666Z" fill="#263238"/>
<path d="M306.32 211.03C306.479 210.944 307.263 212.082 308.083 213.551C308.674 214.408 309.09 215.373 309.307 216.391C308.557 215.671 307.958 214.81 307.544 213.857C306.946 213.009 306.529 212.047 306.32 211.03Z" fill="#263238"/>
<path d="M301.535 199.769C302.643 201.512 303.373 203.467 303.677 205.51C303.029 204.695 302.562 203.752 302.306 202.743C301.85 201.815 301.587 200.803 301.535 199.769Z" fill="#263238"/>
<path d="M299.452 187.737C299.812 188.704 299.995 189.728 299.991 190.76C300.203 191.766 300.241 192.802 300.101 193.82C299.619 192.894 299.367 191.866 299.366 190.822C299.154 189.801 299.184 188.745 299.452 187.737Z" fill="#263238"/>
<path d="M300.47 175.558C300.567 176.583 300.493 177.618 300.249 178.618C300.206 179.65 299.978 180.666 299.576 181.617C299.339 180.599 299.339 179.539 299.576 178.52C299.636 177.476 299.943 176.461 300.47 175.558Z" fill="#263238"/>
<path d="M304.46 164.016C304.304 165.036 303.973 166.022 303.481 166.929C303.177 167.914 302.71 168.841 302.098 169.671C302.358 167.607 303.174 165.652 304.46 164.016Z" fill="#263238"/>
<path d="M311.277 153.869C311.411 153.991 310.603 155.093 309.575 156.427C308.547 157.761 307.678 158.875 307.531 158.716C307.822 157.711 308.351 156.792 309.073 156.036C310.114 154.689 311.154 153.759 311.277 153.869Z" fill="#263238"/>
<path d="M320.471 145.815C320.569 145.962 319.504 146.831 318.182 147.859C317.432 148.567 316.567 149.142 315.624 149.561C315.502 149.426 316.444 148.337 317.79 147.357C318.551 146.64 319.469 146.112 320.471 145.815Z" fill="#263238"/>
<path d="M331.365 140.283C330.54 140.902 329.618 141.378 328.635 141.69C327.739 142.194 326.761 142.538 325.747 142.706C325.661 142.547 326.824 141.788 328.39 141.115C329.3 140.6 330.32 140.314 331.365 140.283Z" fill="#263238"/>
<path d="M340.274 138.03C340.274 138.202 339.65 138.471 338.83 138.618C338.01 138.765 337.3 138.765 337.263 138.618C337.226 138.471 337.875 138.177 338.708 138.018C339.54 137.859 340.274 137.859 340.274 138.03Z" fill="#263238"/>
<path d="M365.219 101.996C365.219 101.996 379.589 91.7388 399.491 98.3239C399.491 98.3239 401.119 114.799 385.17 127.896" fill="#525CEB"/>
<path d="M319.895 132.425C320.507 133.343 336.113 158.422 336.113 158.422L382.955 129.56C384.888 128.369 386.553 126.789 387.844 124.92C389.135 123.052 390.024 120.935 390.454 118.705C390.885 116.475 390.847 114.18 390.344 111.966C389.841 109.751 388.884 107.665 387.533 105.839C385.022 102.451 381.302 100.161 377.146 99.4451C372.991 98.7292 368.719 99.6429 365.219 101.996L319.895 132.425Z" fill="#525CEB"/>
<path d="M336.111 158.422L335.059 176.072C335.059 176.072 365.414 161.384 357.837 145.032L336.111 158.422Z" fill="#263238"/>
<path d="M341.594 117.859C341.594 117.859 321.007 108.777 304.066 122.094L319.893 132.425L341.594 117.859Z" fill="#263238"/>
<path d="M341.497 132.437L312.207 150.797C312.207 150.797 313.211 153.955 313.994 153.685C314.777 153.416 336.675 140.466 343.811 136.243C344.083 136.081 344.318 135.862 344.498 135.6C344.678 135.339 344.8 135.042 344.854 134.729C344.909 134.417 344.895 134.096 344.815 133.789C344.734 133.482 344.588 133.196 344.386 132.951C344.05 132.528 343.571 132.242 343.039 132.147C342.507 132.052 341.959 132.155 341.497 132.437Z" fill="#263238"/>
<path d="M377.572 120.695C378.758 115.655 375.634 110.607 370.593 109.421C365.553 108.235 360.505 111.36 359.319 116.4C358.133 121.441 361.258 126.488 366.298 127.674C371.339 128.86 376.387 125.736 377.572 120.695Z" fill="#FAFAFA"/>
<path d="M377.812 118.544C377.739 118.544 377.812 117.712 377.396 116.292C376.85 114.282 375.642 112.514 373.969 111.274C372.833 110.421 371.512 109.847 370.114 109.597C368.513 109.312 366.866 109.455 365.34 110.013C363.633 110.617 362.149 111.722 361.08 113.183C359.935 114.736 359.317 116.615 359.317 118.544C359.317 120.474 359.935 122.353 361.08 123.906C362.138 125.359 363.604 126.467 365.291 127.088C366.818 127.645 368.464 127.789 370.065 127.504C371.463 127.254 372.784 126.68 373.92 125.827C375.591 124.584 376.797 122.817 377.347 120.809C377.727 119.389 377.69 118.544 377.764 118.544C377.795 118.747 377.795 118.954 377.764 119.156C377.76 119.734 377.69 120.309 377.555 120.87C377.141 122.652 376.218 124.276 374.9 125.545C373.581 126.814 371.923 127.673 370.126 128.018C368.338 128.368 366.487 128.202 364.789 127.539C363.092 126.875 361.619 125.743 360.542 124.273C359.31 122.617 358.645 120.608 358.645 118.544C358.645 116.481 359.31 114.472 360.542 112.816C361.675 111.268 363.249 110.099 365.058 109.462C366.575 108.913 368.207 108.758 369.8 109.013C371.393 109.268 372.895 109.924 374.165 110.919C375.918 112.242 377.149 114.14 377.641 116.28C377.776 116.841 377.846 117.416 377.849 117.994C377.865 118.178 377.852 118.364 377.812 118.544Z" fill="#263238"/>
<path d="M389.236 124.848C389.113 124.848 388.979 123.024 388.256 120.172C387.829 118.504 387.285 116.868 386.628 115.276C384.997 111.391 382.694 107.823 379.823 104.738C378.647 103.482 377.383 102.313 376.041 101.237C373.728 99.4133 372.124 98.532 372.185 98.4218C372.593 98.5586 372.984 98.7435 373.348 98.9726C373.798 99.2061 374.235 99.4635 374.658 99.7438C375.147 100.074 375.723 100.417 376.31 100.882C377.717 101.917 379.031 103.072 380.239 104.334C383.23 107.419 385.584 111.062 387.167 115.056C387.814 116.68 388.326 118.354 388.697 120.062C388.881 120.784 388.954 121.458 389.052 122.045C389.133 122.543 389.186 123.046 389.211 123.551C389.282 123.98 389.29 124.417 389.236 124.848Z" fill="#263238"/>
<path d="M386.711 126.145C386.588 126.145 386.442 124.297 385.707 121.396C385.271 119.704 384.719 118.043 384.055 116.427C383.22 114.456 382.225 112.556 381.08 110.748C379.914 108.956 378.604 107.261 377.164 105.68C375.97 104.394 374.686 103.196 373.32 102.094C370.982 100.221 369.355 99.3154 369.416 99.2052C369.846 99.346 370.257 99.5392 370.64 99.7805C371.092 100.019 371.529 100.284 371.949 100.576C372.451 100.907 373.039 101.274 373.626 101.8C375.037 102.849 376.363 104.007 377.592 105.264C379.085 106.85 380.433 108.566 381.619 110.393C382.778 112.236 383.773 114.177 384.593 116.194C385.249 117.847 385.769 119.55 386.148 121.286C386.331 122.021 386.405 122.706 386.503 123.294C386.593 123.799 386.65 124.31 386.674 124.824C386.736 125.261 386.748 125.705 386.711 126.145Z" fill="#263238"/>
<path d="M100.171 515.304C99.1185 511.142 101.872 506.981 104.945 503.982C108.017 500.983 111.677 498.303 113.292 494.325C115.9 487.886 112.485 479.502 116.964 474.141C119.559 470.983 124.21 469.955 126.512 466.577C127.584 464.714 128.298 462.667 128.617 460.542C131.118 449.824 136.453 439.974 144.064 432.023C144.538 441.582 142.424 451.093 137.944 459.551C136.144 462.929 133.941 466.222 133.342 470.004C132.338 476.124 135.79 482.476 134.198 488.498C132.424 495.377 124.663 499.955 124.247 507.042C123.904 513.052 129.143 518.34 128.678 524.337C128.356 526.886 127.429 529.32 125.973 531.436C121.175 539.086 114.357 544.362 104.039 544.129L91.3828 544.496L100.171 515.304Z" fill="#525CEB"/>
<g opacity="0.3">
<path d="M100.171 515.304C99.1185 511.142 101.872 506.981 104.945 503.982C108.017 500.983 111.677 498.303 113.292 494.325C115.9 487.886 112.485 479.502 116.964 474.141C119.559 470.983 124.21 469.955 126.512 466.577C127.584 464.714 128.298 462.667 128.617 460.542C131.118 449.824 136.453 439.974 144.064 432.023C144.538 441.582 142.424 451.093 137.944 459.551C136.144 462.929 133.941 466.222 133.342 470.004C132.338 476.124 135.79 482.476 134.198 488.498C132.424 495.377 124.663 499.955 124.247 507.042C123.904 513.052 129.143 518.34 128.678 524.337C128.356 526.886 127.429 529.32 125.973 531.436C121.175 539.086 114.357 544.362 104.039 544.129L91.3828 544.496L100.171 515.304Z" fill="#525CEB"/>
</g>
<path d="M88.8116 544.815C87.6522 544.99 86.471 544.956 85.3232 544.717C83.9248 544.503 82.5513 544.15 81.2228 543.664C79.3904 543.011 77.6782 542.06 76.1554 540.849C75.2421 540.108 74.5306 539.148 74.0869 538.058C73.7117 536.832 73.5179 535.558 73.5116 534.276C73.4926 532.905 73.4028 531.537 73.2423 530.176C73.0035 528.73 72.4837 527.345 71.7123 526.1C70.2435 523.468 67.771 520.983 66.9999 517.409C66.2288 513.835 66.7918 510.065 67.4038 506.332C68.0158 502.599 68.6278 498.401 67.1713 494.435C65.7147 490.469 63.0831 486.883 61.7245 482.415C60.3658 477.948 61.0391 473.064 60.7698 468.278C60.6999 465.85 60.1552 463.459 59.1663 461.24C58.1504 459 56.7183 456.882 55.6535 454.52C53.438 449.734 53.0708 444.336 52.4833 439.037C52.2018 436.368 51.908 433.663 51.6265 430.946C51.4525 428.205 50.9931 425.489 50.2556 422.843C49.421 420.171 48.4278 417.551 47.2813 414.997C46.6849 413.674 46.2018 412.302 45.837 410.897C45.6287 409.452 45.4979 407.998 45.4453 406.539C45.3255 403.616 45.4565 400.688 45.837 397.788C46.1919 394.875 46.7427 391.974 47.061 389.048C47.061 388.877 47.061 388.706 47.061 388.547L47.1222 387.971L47.6362 388.228C50.3154 389.606 52.637 391.588 54.4172 394.018C56.1594 396.387 57.5564 398.992 58.5666 401.754C60.6474 407.2 61.3695 412.904 62.4099 418.339C63.4503 423.773 64.76 429.147 67.514 433.675C68.8971 435.94 70.5618 438.008 72.0183 440.212C73.5675 442.363 74.6247 444.828 75.115 447.433C75.825 452.794 72.8506 457.482 73.4382 462.219C73.7442 464.553 74.5454 466.794 75.7882 468.792C76.9266 470.824 78.2363 472.697 79.5337 474.594C80.8348 476.435 81.9616 478.394 82.8997 480.444C83.7953 482.456 84.3218 484.612 84.4542 486.809C84.7357 491.081 84.1114 495.12 84.4542 498.951C84.7803 502.591 85.8201 506.13 87.5142 509.368C89.0197 512.489 90.7088 515.316 92.1164 518.046C92.8189 519.362 93.4522 520.715 94.0136 522.097C94.5193 523.388 94.8845 524.73 95.103 526.1C95.451 528.494 95.451 530.927 95.103 533.321C94.7529 536.666 93.4818 539.848 91.431 542.514C91.1223 542.911 90.7781 543.28 90.4028 543.615C90.1525 543.878 89.8733 544.112 89.5705 544.313L88.8483 544.815C89.75 544.089 90.5707 543.268 91.2963 542.367C93.2608 539.698 94.4662 536.547 94.7847 533.248C95.0836 530.88 95.0424 528.481 94.6623 526.124C94.4348 524.783 94.0655 523.47 93.5607 522.207C93.0344 520.898 92.3367 519.576 91.6635 518.217C90.2314 515.512 88.5301 512.697 86.9879 509.551C85.2458 506.26 84.1686 502.658 83.8177 498.951C83.4995 495.047 84.1115 490.995 83.8177 486.822C83.6875 484.709 83.1819 482.637 82.3244 480.702C81.3921 478.69 80.2776 476.769 78.9951 474.961C77.7711 473.076 76.3758 471.191 75.2007 469.122C73.9346 467.031 73.1253 464.695 72.8262 462.268C72.2509 457.213 75.2007 452.476 74.4663 447.519C73.9836 445.032 72.9552 442.682 71.4553 440.64C70.0232 438.474 68.3463 436.405 66.9265 434.092C64.0868 429.428 62.7159 423.969 61.7 418.498C60.6841 413.027 59.9252 407.384 57.8811 402.047C56.8984 399.359 55.5384 396.825 53.8419 394.52C52.1367 392.195 49.9163 390.297 47.3547 388.975L47.9422 388.644L47.881 389.159C47.5383 392.121 46.9998 395.022 46.657 397.898C46.2769 400.758 46.1458 403.645 46.2654 406.527C46.3388 407.935 46.4245 409.416 46.6326 410.75C46.9952 412.102 47.4617 413.424 48.0279 414.703C49.1881 417.285 50.1935 419.934 51.039 422.635C51.7747 425.318 52.23 428.071 52.3976 430.848C52.6914 433.565 52.9729 436.27 53.2544 438.939C53.8297 444.263 54.1969 449.575 56.3266 454.19C57.3915 456.491 58.7746 458.608 59.8273 460.934C60.852 463.251 61.4173 465.745 61.4919 468.278C61.7367 473.174 61.0758 477.935 62.3732 482.268C63.6706 486.601 66.4002 490.175 67.771 494.276C69.1419 498.376 68.5911 502.672 67.9669 506.454C67.3426 510.237 66.7429 513.97 67.5018 517.336C68.2606 520.702 70.5985 523.211 72.104 525.904C72.894 527.2 73.4221 528.639 73.6585 530.139C73.8158 531.516 73.8976 532.902 73.9033 534.288C73.8911 535.531 74.0644 536.769 74.4174 537.96C74.8345 539.001 75.5032 539.922 76.3635 540.641C77.8315 541.839 79.4852 542.79 81.2595 543.456C82.566 543.962 83.9189 544.339 85.2987 544.582C86.1476 544.736 87.0068 544.826 87.8691 544.851C88.5056 544.802 88.8116 544.815 88.8116 544.815Z" fill="#263238"/>
<path d="M49.6797 395.536C49.7362 395.656 49.7774 395.784 49.8021 395.915C49.8633 396.221 49.9612 396.588 50.0714 397.053C50.3162 398.057 50.5977 399.563 51.0628 401.448C51.5279 403.332 52.6907 405.45 53.6577 408.069C54.6247 410.689 55.6773 413.675 56.6075 417.054C57.5378 420.432 58.3946 424.189 59.2636 428.204C60.003 432.515 61.342 436.701 63.2416 440.64C64.2698 442.696 65.4203 444.789 66.3383 447.066C67.2343 449.406 67.8346 451.848 68.1254 454.337C68.7329 459.487 69.6113 464.603 70.757 469.661C73.205 480.041 75.653 489.93 77.746 498.939C79.8391 507.948 81.9321 516.002 83.609 522.819C85.2859 529.637 86.5588 535.059 87.4891 538.927L88.505 543.321C88.6029 543.786 88.6886 544.166 88.7498 544.472C88.7633 544.602 88.7633 544.733 88.7498 544.864C88.6875 544.744 88.6422 544.616 88.6151 544.484L88.2847 543.358C88.0031 542.305 87.6115 540.849 87.0607 539.001L82.9235 522.954C81.2099 516.149 79.1659 508.07 76.9015 499.123C74.6371 490.175 72.3482 480.224 69.839 469.832C68.7236 464.736 67.8819 459.584 67.3175 454.398C67.0512 451.968 66.4753 449.582 65.6039 447.299C64.7227 445.083 63.5843 443.002 62.5562 440.922C60.6648 436.951 59.3342 432.737 58.6027 428.4C57.7581 424.373 56.9625 420.628 56.0567 417.262C55.151 413.896 54.1963 410.872 53.2293 408.277C52.2623 405.683 51.2219 403.516 50.7813 401.57C50.3407 399.624 50.1203 398.155 49.9367 397.139C49.8511 396.674 49.7899 396.282 49.7409 395.976C49.6998 395.833 49.6792 395.685 49.6797 395.536Z" fill="#263238"/>
<path d="M86.5698 544.839C78.3323 539.882 76.0434 524.961 79.5441 516.002C83.0447 507.042 89.128 498.866 90.1072 489.318C90.8661 481.974 88.5037 474.41 90.2541 467.286C92.6286 457.592 102.139 450.15 102.09 440.163C102.09 434.569 98.9077 429.281 99.1893 423.688C99.5442 416.833 104.832 411.448 108.124 405.401C113.167 396.184 113.559 385.254 115.322 374.899C117.084 364.544 121.099 353.454 130.316 348.412C131.625 357.224 133.914 363.271 133.119 375.193C132.825 379.464 127.806 387.641 127.072 397.017C126.644 402.623 126.325 408.241 125.958 413.859C125.591 419.477 125.199 424.875 123.216 429.979C121.699 433.884 119.263 437.421 118.125 441.46C115.983 449.061 118.7 457.311 116.901 465.01C115.432 471.534 110.878 477.127 109.912 483.737C108.565 493.039 114.526 502.734 111.393 511.595C109.838 515.989 106.203 519.502 105.15 524.043C104.33 527.568 105.15 531.302 104.44 534.839C103.216 540.543 92.3226 544.913 86.5086 544.533" fill="#525CEB"/>
<path d="M127.991 357.078C128.008 357.244 128.008 357.412 127.991 357.579C127.991 357.947 127.881 358.424 127.796 359.024C127.6 360.248 127.379 362.157 126.939 364.568C126.498 366.98 125.188 369.721 124.173 373.002C123.157 376.282 122.031 380.064 121.076 384.312C120.121 388.559 119.301 393.234 118.444 398.277C117.587 403.32 116.645 408.816 114.111 414.067C112.887 416.699 111.663 419.342 110.635 422.145C109.668 425.034 109.063 428.031 108.836 431.068C108.34 437.523 107.494 443.946 106.302 450.31C103.695 463.333 101.223 475.744 98.9582 487.03L92.6423 516.944C90.8186 525.414 89.3375 532.281 88.3094 537.091C87.783 539.429 87.3791 541.265 87.0854 542.562L86.7549 543.982C86.7207 544.146 86.6716 544.305 86.608 544.46C86.5942 544.297 86.5942 544.133 86.608 543.97C86.6814 543.603 86.7671 543.126 86.865 542.526C87.1221 541.216 87.477 539.38 87.9422 537.03C88.9091 532.207 90.3045 525.316 92.0181 516.822C93.7317 508.327 95.8492 498.131 98.1381 486.87L105.482 450.15C106.663 443.81 107.508 437.412 108.016 430.983C108.251 427.881 108.876 424.821 109.876 421.876C110.892 419.012 112.226 416.356 113.401 413.749C115.923 408.583 116.829 403.173 117.747 398.143C118.665 393.112 119.485 388.351 120.501 384.165C121.516 379.979 122.606 376.135 123.72 372.855C124.834 369.575 126.094 366.845 126.596 364.483C127.098 362.12 127.367 360.235 127.612 358.987C127.722 358.387 127.82 357.922 127.881 357.555C127.905 357.393 127.942 357.233 127.991 357.078Z" fill="#263238"/>
<path d="M501.156 352.218H492.625V379.783H501.156V352.218Z" fill="#525CEB"/>
<path d="M516.859 340.872H508.328V379.77H516.859V340.872Z" fill="#525CEB"/>
<path d="M533.566 335.572H525.035V379.77H533.566V335.572Z" fill="#525CEB"/>
<path d="M550.289 329.99H541.758V379.783H550.289V329.99Z" fill="#525CEB"/>
<path d="M205.045 388.008C205.685 388.098 206.305 388.292 206.881 388.583C208.235 389.244 209.37 390.282 210.149 391.571C210.929 392.861 211.32 394.348 211.275 395.854C211.238 397.274 210.815 398.658 210.051 399.856C209.205 401.189 207.982 402.241 206.538 402.88C204.987 403.569 203.256 403.74 201.6 403.367C199.944 402.994 198.452 402.098 197.346 400.811C196.834 400.206 196.421 399.525 196.122 398.791C195.805 398.094 195.602 397.35 195.522 396.588C195.345 395.176 195.553 393.743 196.122 392.439C196.72 391.056 197.707 389.876 198.963 389.044C200.219 388.212 201.69 387.763 203.197 387.751C203.843 387.727 204.489 387.814 205.106 388.008C205.106 388.008 204.421 387.873 203.209 387.922C201.483 387.991 199.83 388.643 198.521 389.771C197.62 390.533 196.911 391.498 196.453 392.586C195.933 393.834 195.751 395.198 195.926 396.539C196.016 397.259 196.214 397.96 196.514 398.62C196.816 399.318 197.229 399.963 197.738 400.53C198.79 401.738 200.2 402.578 201.764 402.928C203.327 403.279 204.961 403.12 206.428 402.476C207.129 402.177 207.774 401.763 208.338 401.252C208.898 400.783 209.381 400.229 209.77 399.612C210.34 398.717 210.717 397.714 210.879 396.667C211.041 395.619 210.983 394.548 210.709 393.524C210.435 392.5 209.951 391.544 209.288 390.716C208.625 389.889 207.797 389.208 206.857 388.718C205.718 388.143 205.033 388.008 205.045 388.008Z" fill="#263238"/>
<path d="M211.261 379.673C211.256 379.583 211.256 379.493 211.261 379.403C211.261 379.195 211.261 378.926 211.261 378.571C211.261 377.812 211.261 376.723 211.261 375.303L211.322 375.376L204.26 373.834L204.382 373.773L202.522 377.726V377.8H202.436C200.872 377.868 199.325 378.144 197.834 378.62H197.748L197.687 378.559L194.578 375.486H194.615L188.495 379.379L188.568 379.171L190.037 383.283V383.381L189.964 383.467C188.908 384.618 188.007 385.902 187.283 387.286V387.384H187.271H182.913L183.097 387.225C182.607 389.44 182.069 391.827 181.53 394.275L181.42 394.042L185.361 395.915L185.471 395.976V396.099C185.541 397.656 185.808 399.199 186.267 400.689V400.811L186.169 400.909L183.085 404.006V403.736L186.953 409.856L186.695 409.758L190.808 408.29H190.943L191.041 408.375C192.179 409.435 193.455 410.337 194.835 411.056C194.896 411.142 194.725 410.86 194.957 411.252V415.609L194.786 415.389L201.836 416.98L201.592 417.102C202.216 415.768 202.816 414.459 203.464 413.149L203.525 413.039H203.66C205.215 412.98 206.755 412.713 208.238 412.243H208.373L208.458 412.329L211.555 415.426H211.286L217.406 411.57L217.32 411.803C216.818 410.407 216.341 409.036 215.851 407.69V407.58L215.937 407.482C216.999 406.338 217.905 405.058 218.63 403.675V403.577H223.109L222.938 403.724C223.501 401.276 224.028 398.902 224.529 396.662L224.627 396.858L220.686 394.973H220.6V394.875C220.547 393.312 220.284 391.764 219.817 390.272V390.187V390.126L222.914 387.029V387.2L219.07 381.08H219.193L215.068 382.512C214.202 381.71 213.263 380.988 212.265 380.358L211.506 379.905L211.261 379.746L211.53 379.868L212.302 380.285C213.323 380.895 214.282 381.604 215.166 382.402H215.092L219.193 380.909H219.266V380.982L223.158 387.102V387.188L223.085 387.274L220.013 390.37V390.223C220.498 391.742 220.774 393.319 220.833 394.911L220.747 394.777L224.701 396.637L224.823 396.698V396.833C224.333 399.061 223.807 401.399 223.256 403.883V404.03H218.74L218.911 403.932C218.174 405.346 217.252 406.655 216.169 407.825V407.629C216.647 408.975 217.149 410.346 217.638 411.741L217.699 411.9L217.553 411.986L211.433 415.854L211.286 415.952L211.163 415.83L208.067 412.745H208.287C206.764 413.228 205.183 413.504 203.587 413.565L203.77 413.443C203.158 414.74 202.546 416.062 201.898 417.384L201.824 417.543H201.653L194.603 415.964H194.431V411.264C194.664 411.656 194.431 411.374 194.554 411.46C193.139 410.725 191.83 409.803 190.661 408.718H190.882L186.769 410.175L186.598 410.236L186.512 410.089L182.644 403.969L182.546 403.822L182.669 403.7L185.753 400.603V400.823C185.274 399.299 184.998 397.719 184.933 396.123L185.055 396.294L181.151 394.483L181.004 394.41V394.25L182.595 387.2V387.041H187.271L187.112 387.139C187.847 385.729 188.77 384.423 189.853 383.259V383.442L188.397 379.318V379.183L188.519 379.11L194.639 375.254L194.749 375.193L194.847 375.278L197.932 378.375H197.785C199.301 377.901 200.873 377.633 202.461 377.58L202.35 377.653L204.248 373.712V373.626H204.333L211.371 375.254H211.433C211.433 376.662 211.433 377.702 211.433 378.498C211.433 378.852 211.433 379.134 211.433 379.33C211.384 379.448 211.326 379.563 211.261 379.673Z" fill="#263238"/>
<path fill-rule="evenodd" clip-rule="evenodd" d="M197.942 324.764C199.488 325.571 200.92 326.58 202.202 327.763L206.755 326.147L211.027 332.891L207.624 336.318C208.146 337.986 208.446 339.714 208.518 341.459L212.875 343.528L211.125 351.288H206.302C205.49 352.834 204.478 354.266 203.291 355.548L204.919 360.101L198.163 364.373L194.735 361.08C193.072 361.601 191.348 361.901 189.607 361.974L187.538 366.331L179.741 364.581V359.758C178.194 358.949 176.761 357.936 175.482 356.747L170.929 358.375L166.645 351.618L170.06 348.204C169.54 346.536 169.24 344.808 169.166 343.063L164.809 340.994L166.547 333.197H171.357C172.161 331.65 173.17 330.217 174.356 328.938L172.752 324.36L179.497 320.076L182.924 323.491C184.591 322.969 186.319 322.669 188.065 322.597L190.133 318.24L197.93 319.99V324.813L197.942 324.764ZM191.063 333.944C189.41 333.574 187.685 333.702 186.104 334.313C184.524 334.923 183.16 335.989 182.185 337.374C181.21 338.759 180.668 340.403 180.627 342.096C180.585 343.79 181.047 345.458 181.953 346.889C182.86 348.32 184.17 349.451 185.718 350.137C187.267 350.824 188.984 351.036 190.654 350.748C192.323 350.459 193.869 349.681 195.097 348.514C196.324 347.347 197.178 345.841 197.551 344.189C197.798 343.09 197.827 341.953 197.635 340.844C197.443 339.734 197.034 338.673 196.431 337.721C195.829 336.77 195.044 335.946 194.123 335.298C193.202 334.65 192.162 334.19 191.063 333.944Z" fill="#FF725E"/>
<g opacity="0.8">
<path fill-rule="evenodd" clip-rule="evenodd" d="M197.942 324.764C199.488 325.571 200.92 326.58 202.202 327.763L206.755 326.147L211.027 332.891L207.624 336.318C208.146 337.986 208.446 339.714 208.518 341.459L212.875 343.528L211.125 351.288H206.302C205.49 352.834 204.478 354.266 203.291 355.548L204.919 360.101L198.163 364.373L194.735 361.08C193.072 361.601 191.348 361.901 189.607 361.974L187.538 366.331L179.741 364.581V359.758C178.194 358.949 176.761 357.936 175.482 356.747L170.929 358.375L166.645 351.618L170.06 348.204C169.54 346.536 169.24 344.808 169.166 343.063L164.809 340.994L166.547 333.197H171.357C172.161 331.65 173.17 330.217 174.356 328.938L172.752 324.36L179.497 320.076L182.924 323.491C184.591 322.969 186.319 322.669 188.065 322.597L190.133 318.24L197.93 319.99V324.813L197.942 324.764ZM191.063 333.944C189.41 333.574 187.685 333.702 186.104 334.313C184.524 334.923 183.16 335.989 182.185 337.374C181.21 338.759 180.668 340.403 180.627 342.096C180.585 343.79 181.047 345.458 181.953 346.889C182.86 348.32 184.17 349.451 185.718 350.137C187.267 350.824 188.984 351.036 190.654 350.748C192.323 350.459 193.869 349.681 195.097 348.514C196.324 347.347 197.178 345.841 197.551 344.189C197.798 343.09 197.827 341.953 197.635 340.844C197.443 339.734 197.034 338.673 196.431 337.721C195.829 336.77 195.044 335.946 194.123 335.298C193.202 334.65 192.162 334.19 191.063 333.944Z" fill="#525CEB"/>
</g>
<path fill-rule="evenodd" clip-rule="evenodd" d="M169.743 370.713C170.632 371.182 171.455 371.766 172.191 372.451L174.847 371.508L177.295 375.438L175.312 377.433C175.618 378.401 175.795 379.405 175.839 380.419L178.372 381.643L177.479 386.172H174.664C174.193 387.06 173.609 387.883 172.925 388.62L173.868 391.264L169.927 393.712L167.944 391.729C166.971 392.03 165.963 392.202 164.945 392.243L163.721 394.789L159.18 393.761V390.958C158.289 390.487 157.466 389.898 156.732 389.208L154.076 390.15L151.628 386.221L153.611 384.226C153.309 383.257 153.136 382.253 153.097 381.239L150.551 380.015L151.567 375.474H154.223C154.699 374.587 155.288 373.764 155.973 373.026L155.031 370.382L158.96 367.934L160.955 369.93C161.921 369.618 162.926 369.441 163.941 369.403L165.165 366.87L169.706 367.885V370.701L169.743 370.713ZM165.741 376.05C164.777 375.831 163.77 375.904 162.847 376.258C161.925 376.612 161.128 377.232 160.558 378.039C159.988 378.847 159.67 379.805 159.645 380.793C159.62 381.781 159.888 382.754 160.416 383.589C160.945 384.425 161.709 385.084 162.612 385.485C163.516 385.886 164.518 386.009 165.491 385.84C166.465 385.671 167.367 385.217 168.082 384.535C168.798 383.854 169.295 382.975 169.511 382.01C169.799 380.72 169.564 379.368 168.858 378.251C168.151 377.133 167.03 376.342 165.741 376.05Z" fill="#FF725E"/>
<g opacity="0.4">
<path fill-rule="evenodd" clip-rule="evenodd" d="M169.743 370.713C170.632 371.182 171.455 371.766 172.191 372.451L174.847 371.508L177.295 375.438L175.312 377.433C175.618 378.401 175.795 379.405 175.839 380.419L178.372 381.643L177.479 386.172H174.664C174.193 387.06 173.609 387.883 172.925 388.62L173.868 391.264L169.927 393.712L167.944 391.729C166.971 392.03 165.963 392.202 164.945 392.243L163.721 394.789L159.18 393.761V390.958C158.289 390.487 157.466 389.898 156.732 389.208L154.076 390.15L151.628 386.221L153.611 384.226C153.309 383.257 153.136 382.253 153.097 381.239L150.551 380.015L151.567 375.474H154.223C154.699 374.587 155.288 373.764 155.973 373.026L155.031 370.382L158.96 367.934L160.955 369.93C161.921 369.618 162.926 369.441 163.941 369.403L165.165 366.87L169.706 367.885V370.701L169.743 370.713ZM165.741 376.05C164.777 375.831 163.77 375.904 162.847 376.258C161.925 376.612 161.128 377.232 160.558 378.039C159.988 378.847 159.67 379.805 159.645 380.793C159.62 381.781 159.888 382.754 160.416 383.589C160.945 384.425 161.709 385.084 162.612 385.485C163.516 385.886 164.518 386.009 165.491 385.84C166.465 385.671 167.367 385.217 168.082 384.535C168.798 383.854 169.295 382.975 169.511 382.01C169.799 380.72 169.564 379.368 168.858 378.251C168.151 377.133 167.03 376.342 165.741 376.05Z" fill="#525CEB"/>
</g>
<path d="M440.066 325.67C442.633 324.931 444.879 323.355 446.448 321.193C448.016 319.03 448.815 316.405 448.719 313.736C448.573 311.288 447.679 309.011 447.777 306.612C447.936 302.94 450.409 299.745 452.269 296.514C454.13 293.283 455.366 289.035 453.199 286C451.804 284.029 449.319 283.148 447.618 281.434C445.917 279.721 445.17 277.432 444.264 275.241C443.358 273.05 442.22 270.786 440.164 269.623C438.107 268.46 434.962 268.962 434.117 271.177" fill="#263238"/>
<path d="M417.837 265.29C421.509 262.952 422.39 257.554 420.395 253.698C418.4 249.843 414.189 247.493 409.905 246.795C406.788 246.321 403.603 246.591 400.61 247.582C397.618 248.573 394.901 250.258 392.684 252.499C390.321 254.947 388.4 258.117 385.193 259.231C382.378 260.222 379.256 259.329 376.294 259.721C374.319 260.078 372.449 260.872 370.82 262.045C369.192 263.219 367.846 264.741 366.882 266.502C364.985 270.043 363.847 273.941 363.54 277.946C363.112 281.618 362.818 285.596 360.297 288.252C357.775 290.908 353.92 291.398 350.86 293.246C348.041 295.103 346.061 297.99 345.343 301.288C344.625 304.586 345.225 308.035 347.016 310.896C348.24 312.659 349.978 314.286 350.113 316.428C350.248 318.57 348.987 320.1 348.387 322.01C348.078 323.217 348.032 324.476 348.251 325.703C348.47 326.929 348.949 328.094 349.657 329.12C350.365 330.145 351.284 331.007 352.353 331.647C353.422 332.287 354.615 332.69 355.853 332.83C358.399 332.977 361.117 331.986 363.405 333.124C365.694 334.262 366.514 336.992 367.959 339.072C369.45 341.079 371.584 342.514 374.005 343.138C376.427 343.762 378.988 343.536 381.264 342.5C383.136 341.582 384.936 340.052 386.98 340.211C389.024 340.37 390.652 342.12 392.733 342.512C395.413 343.026 397.947 341.055 399.538 338.84C401.129 336.624 402.243 334.017 404.275 332.206C406.943 329.831 410.689 329.256 414.067 328.093C417.8 326.803 421.213 324.726 424.074 322.004C426.936 319.281 429.18 315.976 430.655 312.312C432.13 308.648 432.801 304.709 432.623 300.764C432.445 296.818 431.422 292.956 429.624 289.439" fill="#263238"/>
<path d="M425.953 270.1C427.412 270.259 428.759 270.96 429.726 272.063C430.694 273.167 431.213 274.593 431.179 276.061L427.679 355.217C427.532 364.568 413.872 369.819 403.86 369.587C393.75 369.354 393.431 364.397 393.297 355.499C393.089 340.639 393.113 335.058 393.101 335.143C393.089 335.229 380.335 333.001 377.727 316.331C376.43 308.032 376.871 294.445 377.593 283.344C378.254 273.344 384.937 261.091 394.863 262.169L425.953 270.1Z" fill="#FFBE9D"/>
<path d="M381.203 294.127C381.199 294.684 381.412 295.221 381.795 295.625C382.178 296.029 382.703 296.268 383.259 296.294C383.531 296.315 383.804 296.282 384.063 296.197C384.321 296.112 384.56 295.976 384.766 295.797C384.971 295.617 385.138 295.399 385.258 295.155C385.378 294.91 385.447 294.644 385.463 294.372C385.473 293.815 385.264 293.277 384.882 292.872C384.5 292.467 383.975 292.228 383.419 292.206C383.146 292.184 382.873 292.217 382.613 292.302C382.354 292.387 382.114 292.523 381.908 292.702C381.702 292.881 381.533 293.099 381.412 293.344C381.291 293.588 381.22 293.855 381.203 294.127Z" fill="#263238"/>
<path d="M380.469 290.418C380.738 290.7 382.354 289.5 384.655 289.513C386.956 289.525 388.633 290.676 388.89 290.394C389.147 290.112 388.743 289.77 388.009 289.231C387.015 288.538 385.83 288.171 384.618 288.179C383.423 288.169 382.257 288.542 381.289 289.243C380.579 289.782 380.334 290.296 380.469 290.418Z" fill="#263238"/>
<path d="M404.129 294.127C404.125 294.684 404.337 295.221 404.721 295.625C405.104 296.029 405.629 296.268 406.185 296.294C406.457 296.315 406.73 296.282 406.988 296.197C407.247 296.112 407.486 295.976 407.691 295.797C407.897 295.617 408.064 295.399 408.184 295.155C408.303 294.91 408.373 294.644 408.388 294.372C408.398 293.813 408.188 293.273 407.804 292.868C407.419 292.463 406.891 292.225 406.332 292.206C406.061 292.184 405.788 292.217 405.529 292.302C405.27 292.387 405.031 292.524 404.826 292.703C404.621 292.882 404.453 293.1 404.334 293.345C404.214 293.589 404.144 293.855 404.129 294.127Z" fill="#263238"/>
<path d="M403.078 290.896C403.348 291.177 404.963 289.978 407.264 289.99C409.566 290.002 411.242 291.214 411.499 290.871C411.757 290.529 411.353 290.247 410.618 289.709C409.624 289.016 408.439 288.648 407.228 288.656C406.034 288.652 404.869 289.025 403.898 289.721C403.189 290.272 402.944 290.773 403.078 290.896Z" fill="#263238"/>
<path d="M394.692 307.934C393.501 307.555 392.268 307.325 391.02 307.248C390.433 307.187 389.87 307.065 389.796 306.673C389.748 306.066 389.889 305.459 390.2 304.935C390.751 303.515 391.338 302.022 391.938 300.468C394.386 294.103 396.124 288.864 395.867 288.778C395.61 288.693 393.419 293.76 390.971 300.113C390.396 301.692 389.833 303.185 389.307 304.617C388.93 305.322 388.817 306.138 388.988 306.918C389.073 307.126 389.204 307.311 389.372 307.459C389.539 307.608 389.739 307.716 389.955 307.775C390.282 307.866 390.62 307.915 390.959 307.922C392.198 308.08 393.452 308.084 394.692 307.934Z" fill="#263238"/>
<path d="M393.039 335.143C400.886 335.284 408.619 333.246 415.377 329.256C415.377 329.256 409.722 341.006 393.039 339.403V335.143Z" fill="#EB996E"/>
<path d="M395.648 313.479C396.084 312.937 396.648 312.514 397.289 312.246C397.931 311.979 398.629 311.877 399.32 311.949C399.828 311.993 400.321 312.141 400.769 312.383C401.217 312.625 401.612 312.956 401.927 313.356C402.228 313.742 402.407 314.21 402.44 314.699C402.473 315.188 402.358 315.675 402.111 316.098C401.737 316.508 401.251 316.799 400.714 316.934C400.176 317.069 399.61 317.042 399.087 316.857C398.004 316.464 397.006 315.865 396.15 315.094C395.897 314.903 395.678 314.672 395.501 314.409C395.416 314.282 395.371 314.133 395.371 313.98C395.371 313.828 395.416 313.679 395.501 313.552" fill="#FF725E"/>
<path d="M401.473 309.537C401.093 309.537 401.081 311.985 398.939 313.785C396.797 315.584 394.141 315.266 394.129 315.621C394.129 315.768 394.716 316.098 395.842 316.135C397.304 316.164 398.729 315.669 399.857 314.739C400.947 313.856 401.65 312.583 401.816 311.19C401.901 310.149 401.62 309.525 401.473 309.537Z" fill="#263238"/>
<path d="M402.047 286.869C402.268 287.493 404.569 287.199 407.261 287.53C409.954 287.86 412.157 288.607 412.5 288.044C412.672 287.775 412.292 287.187 411.411 286.575C410.236 285.836 408.909 285.371 407.529 285.216C406.149 285.062 404.752 285.221 403.443 285.682C402.451 286.073 401.949 286.575 402.047 286.869Z" fill="#263238"/>
<path d="M381.325 283.76C381.729 284.286 383.32 283.76 385.217 283.76C387.115 283.76 388.743 284.115 389.11 283.576C389.281 283.307 389.024 282.781 388.314 282.291C387.371 281.692 386.27 281.39 385.153 281.422C384.036 281.455 382.954 281.822 382.047 282.475C381.374 282.964 381.154 283.503 381.325 283.76Z" fill="#263238"/>
<path d="M414.938 264.678C416.836 263.349 418.998 262.442 421.276 262.02C423.554 261.598 425.897 261.669 428.145 262.23C432.588 263.454 436.273 267.517 436.432 272.022C436.53 274.959 435.208 278.142 436.566 280.749C437.925 283.356 440.863 284.298 443.041 286.134C444.711 287.594 445.844 289.57 446.261 291.748C446.678 293.926 446.355 296.181 445.342 298.154C443.519 301.496 439.7 303.944 439.381 307.714C439.075 311.263 442.062 314.262 442.796 317.75C443.592 321.594 441.462 325.572 438.415 328.13C435.367 330.688 431.499 332.096 427.729 333.442C424.791 334.507 421.609 335.584 418.586 334.886C416.8 334.407 415.196 333.41 413.976 332.02C412.756 330.63 411.975 328.91 411.731 327.077C411.549 325.25 411.765 323.404 412.363 321.668C412.961 319.931 413.927 318.344 415.195 317.016C417.337 314.654 420.348 312.659 420.862 309.537C421.658 304.641 415.881 300.712 416.236 295.816C416.419 293.295 418.206 291.202 419.687 289.121C421.168 287.04 422.466 284.433 421.548 282.071C420.324 278.986 416.321 278.178 413.873 275.951C412.864 275.001 412.139 273.79 411.778 272.452C411.417 271.114 411.435 269.703 411.829 268.374C412.275 267.047 413.073 265.867 414.138 264.959C415.203 264.051 416.495 263.451 417.876 263.221" fill="#263238"/>
<path d="M416.737 260.92C416.745 262.596 416.383 264.254 415.677 265.774C414.971 267.295 413.939 268.641 412.653 269.716C411.367 270.791 409.859 271.57 408.238 271.996C406.617 272.422 404.922 272.485 403.273 272.181C400.727 271.716 397.937 270.431 395.733 271.789C393.53 273.148 393.285 276.685 391.266 278.484C388.328 281.043 383.665 278.644 379.931 279.708C377.055 280.565 375.256 283.307 373.334 285.633C371.412 287.958 368.561 290.149 365.672 289.305C365.759 286.707 366.145 284.127 366.822 281.618C367.512 279.094 369.051 276.885 371.18 275.363C372.439 274.708 373.665 273.989 374.852 273.209C377.3 271.287 377.802 267.921 379.27 265.229C380.242 263.495 381.613 262.018 383.269 260.92C384.925 259.821 386.818 259.133 388.793 258.913C392.074 258.582 395.452 259.561 398.585 258.754C400.948 258.166 403.016 256.636 405.403 256.171C410.066 255.29 414.399 258.619 417.778 261.96" fill="#263238"/>
<path d="M447.178 300.761C447.485 300.17 447.617 299.503 447.558 298.84C447.407 297.949 447.013 297.117 446.419 296.437C445.825 295.756 445.054 295.254 444.192 294.984C442.995 294.561 441.767 294.229 440.52 293.993C439.031 293.722 437.616 293.138 436.37 292.279C435.705 291.741 435.167 291.063 434.794 290.293C434.422 289.522 434.225 288.679 434.216 287.824C434.198 286.074 434.284 284.325 434.473 282.585C434.522 281.726 434.477 280.864 434.339 280.014C434.178 279.221 433.844 278.473 433.359 277.824C432.263 276.696 430.872 275.898 429.345 275.522C427.912 275.112 426.538 274.52 425.257 273.76C424.141 273.092 423.127 272.267 422.245 271.312C420.957 269.942 419.958 268.327 419.308 266.563C419.122 266.091 418.979 265.603 418.879 265.106C418.806 264.763 418.782 264.592 418.806 264.58C418.831 264.568 419.026 265.278 419.528 266.477C420.43 268.568 421.801 270.423 423.535 271.898C425.269 273.373 427.32 274.429 429.528 274.984C431.169 275.372 432.664 276.221 433.837 277.432C434.389 278.154 434.774 278.99 434.963 279.88C435.11 280.778 435.159 281.689 435.11 282.597C434.927 284.317 434.837 286.045 434.84 287.775C434.839 288.546 435.008 289.309 435.336 290.007C435.664 290.705 436.143 291.322 436.738 291.814C437.911 292.629 439.24 293.192 440.642 293.466C441.893 293.731 443.121 294.096 444.314 294.556C445.341 294.948 446.239 295.617 446.909 296.49C447.395 297.161 447.687 297.952 447.754 298.778C447.786 299.302 447.681 299.826 447.448 300.296C447.337 300.639 447.191 300.774 447.178 300.761Z" fill="#455A64"/>
<path d="M349.025 311.165L348.744 311.031C348.491 310.872 348.277 310.659 348.119 310.406C347.888 309.875 347.798 309.292 347.858 308.715C347.918 308.138 348.126 307.587 348.462 307.114C348.878 306.381 349.499 305.785 350.249 305.4C351.118 304.969 352.013 304.592 352.93 304.274C353.958 303.931 354.91 303.39 355.733 302.683C356.567 301.811 357.124 300.713 357.336 299.525C357.605 298.301 357.691 296.906 357.924 295.486C358.098 293.962 358.668 292.511 359.576 291.275C361.51 288.729 364.692 287.371 367.067 284.972C368.252 283.71 369.142 282.201 369.674 280.553C370.24 278.814 370.649 277.028 370.898 275.216C371.412 271.544 371.938 267.456 374.399 264.102C375.598 262.417 377.399 261.256 379.429 260.859C381.357 260.584 383.318 260.629 385.231 260.994C387.016 261.34 388.84 261.447 390.653 261.312C392.36 261.114 393.935 260.3 395.084 259.023C397.361 256.575 398.658 253.27 401.461 251.581C402.71 250.819 404.102 250.323 405.551 250.123C407 249.923 408.474 250.023 409.882 250.418C412.216 251.082 414.199 252.627 415.415 254.727C416.333 256.286 416.831 258.058 416.859 259.867C416.892 261 416.714 262.129 416.333 263.197C416.206 263.573 416.037 263.934 415.831 264.274C415.831 264.274 415.978 263.894 416.21 263.16C416.53 262.097 416.667 260.988 416.614 259.88C416.544 258.124 416.031 256.414 415.121 254.91C413.924 252.918 412.003 251.466 409.76 250.859C408.411 250.503 407.003 250.428 405.624 250.638C404.245 250.849 402.924 251.341 401.743 252.083C400.46 252.964 399.366 254.092 398.524 255.4C397.611 256.824 396.605 258.185 395.513 259.476C394.898 260.146 394.179 260.712 393.383 261.153C392.552 261.577 391.653 261.855 390.727 261.973C388.861 262.116 386.984 262.013 385.145 261.667C383.301 261.312 381.412 261.262 379.552 261.52C377.679 261.899 376.021 262.975 374.913 264.531C373.797 266.109 372.988 267.881 372.526 269.757C372.085 271.606 371.745 273.477 371.51 275.363C371.267 277.208 370.858 279.027 370.286 280.798C369.724 282.529 368.778 284.11 367.52 285.425C365.011 287.873 361.865 289.243 360.029 291.655C359.169 292.815 358.621 294.176 358.438 295.608C358.205 297.004 358.107 298.374 357.801 299.672C357.57 300.944 356.955 302.114 356.039 303.026C355.173 303.758 354.17 304.312 353.089 304.654C352.178 304.953 351.287 305.309 350.42 305.718C349.713 306.069 349.119 306.612 348.707 307.285C348.382 307.727 348.172 308.242 348.095 308.784C348.018 309.327 348.077 309.88 348.266 310.394C348.468 310.697 348.726 310.959 349.025 311.165Z" fill="#455A64"/>
<path d="M308.131 425.952L337.691 423.247C337.691 423.247 355.879 375.327 378.303 363.712L392.832 389.085L361.73 447.507H301.02L308.131 425.952Z" fill="#FF725E"/>
<path opacity="0.3" d="M308.131 425.952L337.691 423.247C337.691 423.247 355.879 375.327 378.303 363.712L392.832 389.085L361.73 447.507H301.02L308.131 425.952Z" fill="#525CEB"/>
<path d="M319.809 439.416C321.269 436.118 323.127 433.01 325.341 430.163C323.861 433.451 322.004 436.556 319.809 439.416Z" fill="#FAFAFA"/>
<path d="M340.752 438.841C338.186 436.329 335.926 433.523 334.02 430.481C335.386 431.649 336.6 432.986 337.63 434.459C338.837 435.794 339.884 437.264 340.752 438.841Z" fill="#FAFAFA"/>
<path d="M344.385 427.861C343.96 425.292 343.96 422.671 344.385 420.101C344.809 422.671 344.809 425.292 344.385 427.861Z" fill="#FAFAFA"/>
<path d="M333.984 444.985C332.952 444.697 331.99 444.202 331.157 443.529C329.688 442.562 328.586 441.668 328.709 441.521C329.737 441.823 330.698 442.322 331.536 442.99C332.931 443.945 334.082 444.838 333.984 444.985Z" fill="#FAFAFA"/>
<path d="M350.96 400.946C350.475 402.794 349.79 404.583 348.916 406.282C348.234 408.067 347.355 409.771 346.297 411.362C346.767 409.511 347.449 407.72 348.329 406.025C349.018 404.241 349.901 402.538 350.96 400.946Z" fill="#FAFAFA"/>
<path d="M362.943 381.533C363.041 381.668 361.988 382.647 360.581 383.724C359.78 384.456 358.844 385.025 357.827 385.401C357.729 385.254 358.781 384.275 360.189 383.21C360.986 382.473 361.922 381.903 362.943 381.533Z" fill="#FAFAFA"/>
<path d="M407.152 443.663L422.403 382.084C423.679 376.917 426.874 372.431 431.34 369.536C435.805 366.642 441.206 365.557 446.443 366.502C451.823 367.476 456.609 370.512 459.783 374.963C462.957 379.415 464.266 384.93 463.432 390.334L454.105 450.518C452.991 456.677 449.986 462.337 445.506 466.709C441.027 471.081 435.296 473.948 429.111 474.912L416.993 476.797L407.152 443.663Z" fill="#525CEB"/>
<path d="M455.206 362.524C453.615 361.222 451.755 360.29 449.759 359.795C447.601 359.293 445.357 359.293 443.199 359.795C440.571 360.458 438.13 361.714 436.063 363.467C431.595 367.212 429.172 372.035 427.495 375.486C426.675 377.212 426.051 378.632 425.61 379.611C425.407 380.135 425.157 380.639 424.863 381.117C424.983 380.571 425.155 380.038 425.377 379.526C425.757 378.51 426.308 377.078 427.079 375.291C427.983 373.217 429.03 371.209 430.212 369.281C431.681 366.91 433.51 364.784 435.635 362.977C437.769 361.143 440.306 359.839 443.04 359.171C445.283 358.66 447.615 358.689 449.845 359.256C451.343 359.641 452.749 360.319 453.982 361.251C454.311 361.507 454.618 361.789 454.9 362.096C455.121 362.402 455.218 362.512 455.206 362.524Z" fill="#263238"/>
<path d="M368.828 376.38C368.707 376.587 368.563 376.78 368.399 376.955L367.102 378.522C365.964 379.881 364.36 381.864 362.524 384.422C357.644 391.041 354.106 398.55 352.108 406.527C349.991 415.915 349.88 424.704 349.525 431.007C349.366 434.165 349.219 436.723 349.085 438.486C349.011 439.318 348.95 439.991 348.901 440.518C348.886 440.756 348.853 440.994 348.803 441.228C348.769 440.992 348.769 440.753 348.803 440.518C348.803 439.979 348.803 439.294 348.864 438.474C348.864 436.625 348.999 434.092 349.097 430.995C349.342 424.704 349.366 415.878 351.545 406.392C353.545 398.337 357.173 390.777 362.206 384.177C364.103 381.631 365.768 379.673 366.955 378.363C367.543 377.702 368.032 377.212 368.35 376.882C368.494 376.701 368.654 376.533 368.828 376.38Z" fill="#263238"/>
<path d="M466.53 376.245C464.853 365.229 458.782 362.598 452.479 359.171C450.423 358.044 440.496 355.499 432.626 353.577C431.867 348.816 430.52 340.272 430.178 338.473C429.761 335.939 390.079 342.267 389.577 343.222C389.247 343.846 388.353 353.736 387.754 360.358L378.255 363.675L365.905 379.44L359.455 388.596C355.654 393.877 352.938 399.859 351.462 406.197C350.076 413.215 349.481 420.367 349.687 427.519L347.766 467.911L430.851 491.387L437.216 450.432L458.636 421.276C460.459 409.489 468.587 389.783 466.53 376.245Z" fill="#525CEB"/>
<path d="M395.671 361.594C395.38 360.684 395.196 359.743 395.12 358.791C394.863 357.053 394.544 354.642 394.238 351.973C394.092 350.652 393.957 349.391 393.822 348.204C393.696 347.172 393.623 346.134 393.602 345.095C393.591 344.361 393.8 343.64 394.202 343.026C394.52 342.61 394.789 342.5 394.814 342.524C394.838 342.549 394.63 342.744 394.41 343.161C394.133 343.766 394.011 344.43 394.055 345.095C394.055 345.951 394.275 346.98 394.41 348.142C394.544 349.305 394.704 350.59 394.875 351.9C395.181 354.568 395.426 356.992 395.573 358.742C395.715 359.686 395.747 360.643 395.671 361.594Z" fill="#263238"/>
<path d="M406.261 359.097C405.848 358.286 405.552 357.421 405.38 356.527C404.272 352.288 403.859 347.898 404.156 343.528C404.164 342.621 404.296 341.719 404.547 340.847C404.743 340.847 404.388 344.972 404.865 350.015C405.343 355.058 406.457 359.048 406.261 359.097Z" fill="#263238"/>
<path d="M425.952 356.184C426.203 353.141 426.125 350.079 425.72 347.053C425.095 344.062 424.134 341.15 422.855 338.375C423.471 339.056 423.963 339.839 424.312 340.688C426.263 344.668 427.036 349.123 426.54 353.528C426.483 354.438 426.284 355.334 425.952 356.184Z" fill="#263238"/>
<path d="M369.648 392.243C371.54 388.638 373.999 385.361 376.931 382.537C374.663 385.889 372.233 389.128 369.648 392.243Z" fill="#FAFAFA"/>
<path d="M388.292 376.992C385.917 374.606 383.86 371.924 382.172 369.012C383.417 370.14 384.523 371.414 385.464 372.806C386.579 374.077 387.529 375.484 388.292 376.992Z" fill="#FAFAFA"/>
<path d="M407.827 367.469C406.632 368.888 405.326 370.21 403.923 371.423C402.67 372.792 401.315 374.064 399.871 375.229C400.856 373.638 402.073 372.202 403.482 370.97C404.743 369.588 406.209 368.408 407.827 367.469Z" fill="#FAFAFA"/>
<path d="M402.343 355.817C401.204 355.219 400.173 354.432 399.296 353.491C398.272 352.701 397.384 351.75 396.664 350.676C397.802 351.288 398.835 352.077 399.724 353.014C400.744 353.799 401.629 354.746 402.343 355.817Z" fill="#FAFAFA"/>
<path d="M419.466 346.686C418.16 347.297 416.769 347.71 415.341 347.91C413.961 348.309 412.53 348.506 411.094 348.497C412.398 347.891 413.783 347.479 415.206 347.273C416.591 346.874 418.025 346.676 419.466 346.686Z" fill="#FAFAFA"/>
<path d="M422.892 373.797C422.499 372.409 422.317 370.968 422.353 369.526C422.178 368.096 422.211 366.649 422.451 365.229C422.844 366.618 423.026 368.058 422.99 369.501C423.165 370.93 423.132 372.378 422.892 373.797Z" fill="#FAFAFA"/>
<path d="M416.65 386.784C415.743 385.242 415.02 383.599 414.495 381.888C413.785 380.227 413.268 378.49 412.953 376.71C414.563 379.932 415.795 383.329 416.625 386.833L416.65 386.784Z" fill="#FAFAFA"/>
<path d="M399.687 396.025C398.712 394.393 397.924 392.656 397.337 390.848C396.543 389.114 395.952 387.294 395.574 385.425C396.542 387.066 397.33 388.806 397.924 390.615C398.708 392.348 399.299 394.163 399.687 396.025Z" fill="#FAFAFA"/>
<path d="M383.723 406.441C382.593 403.081 381.878 399.596 381.594 396.062C382.253 397.711 382.713 399.433 382.965 401.19C383.423 402.905 383.678 404.667 383.723 406.441Z" fill="#FAFAFA"/>
<path d="M364.753 406.858C362.866 403.934 361.337 400.794 360.199 397.506C362.086 400.43 363.614 403.57 364.753 406.858Z" fill="#FAFAFA"/>
<path d="M364.35 419.024C362.796 420.13 361.13 421.069 359.38 421.827C357.715 422.769 355.95 423.52 354.117 424.067C355.669 422.948 357.34 422.004 359.099 421.252C360.761 420.316 362.522 419.569 364.35 419.024Z" fill="#FAFAFA"/>
<path d="M364.581 438.265C363.749 436.888 363.165 435.376 362.855 433.798C362.34 432.282 362.095 430.686 362.133 429.085C362.72 430.558 363.167 432.082 363.467 433.639C363.982 435.143 364.355 436.692 364.581 438.265Z" fill="#FAFAFA"/>
<path d="M360.654 451.778C359.203 450.86 357.864 449.775 356.663 448.547C355.325 447.479 354.128 446.245 353.102 444.875C354.553 445.794 355.892 446.878 357.092 448.106C358.43 449.174 359.627 450.408 360.654 451.778Z" fill="#FAFAFA"/>
<path d="M385.649 442.549C385.649 442.733 382.883 443.541 379.602 444.997C376.322 446.454 373.825 447.947 373.715 447.788C375.386 446.35 377.29 445.208 379.345 444.41C381.323 443.43 383.456 442.8 385.649 442.549Z" fill="#FAFAFA"/>
<path d="M378.34 435.854C377.551 434.543 376.946 433.131 376.54 431.656C375.929 430.256 375.517 428.776 375.316 427.262C376.102 428.568 376.703 429.977 377.103 431.448C377.723 432.85 378.139 434.334 378.34 435.854Z" fill="#FAFAFA"/>
<path d="M393.164 419.306C392.24 421.378 391.121 423.358 389.822 425.218C388.702 427.211 387.399 429.096 385.93 430.848C387.981 426.806 390.403 422.962 393.164 419.367V419.306Z" fill="#FAFAFA"/>
<path d="M409.098 420.885C407.486 419.232 406.113 417.362 405.022 415.328C403.747 413.405 402.742 411.317 402.035 409.122C402.207 409.049 403.626 411.766 405.573 415.009C407.519 418.253 409.245 420.787 409.098 420.885Z" fill="#FAFAFA"/>
<path d="M418.61 405.144C417.126 405.726 415.541 406.008 413.947 405.976C412.367 406.161 410.766 406.037 409.234 405.609C410.788 405.402 412.355 405.312 413.922 405.34C415.478 405.162 417.045 405.097 418.61 405.144Z" fill="#FAFAFA"/>
<path d="M441.291 387.261C437.406 389.597 433.308 391.556 429.051 393.112C432.942 390.789 437.039 388.831 441.291 387.261Z" fill="#FAFAFA"/>
<path d="M442.797 375.878C444.045 372.436 445.688 369.15 447.693 366.086C447.175 367.842 446.452 369.531 445.539 371.117C444.809 372.803 443.889 374.4 442.797 375.878Z" fill="#FAFAFA"/>
<path d="M457.188 384.813C456.435 383.004 455.813 381.143 455.328 379.244C454.646 377.409 454.097 375.528 453.688 373.614C455.517 377.107 456.703 380.9 457.188 384.813Z" fill="#FAFAFA"/>
<path d="M459.454 396.662C457.771 397.581 455.96 398.241 454.081 398.62C452.252 399.202 450.344 399.495 448.426 399.489C450.222 398.87 452.058 398.375 453.922 398.008C455.733 397.434 457.581 396.984 459.454 396.662Z" fill="#FAFAFA"/>
<path d="M434.777 411.129C434.593 411.129 435.119 408.118 435.266 404.41C435.413 400.701 435.168 397.69 435.352 397.665C435.917 399.874 436.104 402.163 435.903 404.434C435.914 406.714 435.533 408.979 434.777 411.129Z" fill="#FAFAFA"/>
<path d="M429.858 426.025C426.566 423.416 423.856 420.148 421.902 416.429C422.061 416.331 423.677 418.596 425.88 421.24C427.29 422.763 428.618 424.361 429.858 426.025Z" fill="#FAFAFA"/>
<path d="M454.594 422.88C452.991 423.888 451.279 424.709 449.49 425.328C447.781 426.15 445.987 426.782 444.141 427.213C447.454 425.376 450.959 423.911 454.594 422.843V422.88Z" fill="#FAFAFA"/>
<path d="M445.733 450.909C445.361 446.427 445.407 441.92 445.867 437.445C446.255 441.927 446.21 446.436 445.733 450.909Z" fill="#FAFAFA"/>
<path d="M426.75 449.294C427.059 444.61 428.208 440.021 430.141 435.744C430.312 435.805 429.382 438.78 428.451 442.513C427.521 446.246 426.934 449.33 426.75 449.294Z" fill="#FAFAFA"/>
<path d="M427.618 456.65C427.618 456.833 424.583 457.127 420.862 457.752C417.141 458.376 414.154 459.061 414.105 458.878C416.229 457.986 418.466 457.393 420.752 457.115C423.007 456.636 425.319 456.479 427.618 456.65Z" fill="#FAFAFA"/>
<path d="M406.613 451.938C407.677 450.398 408.909 448.982 410.285 447.715C411.498 446.305 412.87 445.04 414.373 443.945C413.309 445.484 412.078 446.9 410.701 448.168C409.485 449.574 408.114 450.839 406.613 451.938Z" fill="#FAFAFA"/>
<path d="M393.014 465.12C392.366 463.56 391.814 461.962 391.362 460.334C390.698 458.778 390.126 457.184 389.648 455.561C391.59 458.396 392.751 461.693 393.014 465.12Z" fill="#FAFAFA"/>
<path d="M414.938 472.733C410.764 471.349 406.734 469.562 402.906 467.397C405.017 467.992 407.066 468.787 409.026 469.771C411.084 470.574 413.063 471.565 414.938 472.733Z" fill="#FAFAFA"/>
<path d="M376.699 470.518C376.871 468.978 377.258 467.47 377.85 466.038C378.237 464.541 378.826 463.104 379.6 461.766C379.427 463.306 379.04 464.814 378.45 466.246C378.053 467.74 377.465 469.176 376.699 470.518Z" fill="#FAFAFA"/>
<path d="M401.915 474.79C401.915 474.973 398.402 474.41 394.069 474.19C389.736 473.97 386.223 474.19 386.211 473.945C388.811 473.44 391.469 473.308 394.106 473.553C396.755 473.588 399.385 474.004 401.915 474.79Z" fill="#FAFAFA"/>
<path d="M407.154 438.694C407.131 438.531 407.131 438.367 407.154 438.204C407.151 437.735 407.221 437.269 407.362 436.821C407.553 436.066 408.026 435.413 408.684 434.997C409.587 434.475 410.649 434.301 411.671 434.508L411.426 434.655C412.76 429.954 414.902 423.1 417.044 415.413C419.051 408.216 420.41 401.594 421.353 396.784C421.818 394.471 422.185 392.549 422.479 391.092C422.589 390.393 422.749 389.701 422.956 389.024C422.941 389.735 422.863 390.444 422.723 391.141C422.528 392.5 422.209 394.458 421.793 396.87C420.733 403.174 419.352 409.421 417.656 415.585C415.514 423.284 413.299 430.114 411.83 434.777L411.769 434.961H411.585C410.661 434.75 409.691 434.88 408.856 435.328C408.248 435.69 407.792 436.26 407.57 436.931C407.166 438.008 407.24 438.706 407.154 438.694Z" fill="#263238"/>
<path d="M434.594 455.72C434.496 455.72 433.738 454.104 432.146 451.632C428.067 445.177 422.314 439.948 415.5 436.503C412.893 435.193 411.167 434.593 411.204 434.483C411.622 434.55 412.033 434.66 412.428 434.814C413.535 435.173 414.619 435.602 415.671 436.099C422.709 439.37 428.583 444.707 432.514 451.399C433.105 452.401 433.632 453.439 434.092 454.508C434.324 454.882 434.493 455.291 434.594 455.72Z" fill="#263238"/>
<g opacity="0.2">
<path d="M411.94 433.59C416.335 433.7 420.687 434.488 424.841 435.928C429.236 437.568 433.299 440.726 434.915 445.132C435.177 445.629 435.294 446.19 435.253 446.751C435.212 447.311 435.014 447.849 434.682 448.302C434.369 448.572 433.987 448.75 433.579 448.817C433.171 448.884 432.752 448.837 432.369 448.682C431.603 448.361 430.911 447.886 430.337 447.286C427.644 444.838 424.841 442.586 422.063 440.187C419.284 437.788 415.221 435.291 411.598 434.716" fill="black"/>
</g>
<path d="M403.112 425.781C402.737 426.077 402.326 426.324 401.888 426.515C400.683 427.105 399.424 427.58 398.13 427.935C393.824 429.164 389.267 429.218 384.932 428.092C380.598 426.967 376.643 424.702 373.479 421.533C372.523 420.589 371.655 419.561 370.884 418.461C370.578 418.088 370.323 417.677 370.125 417.237C370.223 417.164 371.349 418.951 373.797 421.252C376.976 424.255 380.862 426.406 385.095 427.506C389.327 428.606 393.769 428.619 398.008 427.543C401.202 426.686 403.051 425.658 403.112 425.781Z" fill="#263238"/>
<g opacity="0.2">
<path d="M370.727 418.143C372.795 422.623 375.206 427.139 379.123 430.15C381.289 432.021 383.994 433.153 386.847 433.382C390.935 433.455 394.448 430.664 397.569 428.021C387.459 429.612 376.075 425.022 370.727 418.143Z" fill="black"/>
</g>
<path d="M415.988 358.167C415.792 358.167 415.988 353.956 415.523 348.828C415.058 343.699 414.018 339.623 414.201 339.574C414.605 340.407 414.889 341.293 415.046 342.206C415.574 344.363 415.943 346.555 416.147 348.767C416.366 350.979 416.423 353.204 416.319 355.425C416.329 356.35 416.218 357.271 415.988 358.167Z" fill="#263238"/>
<path d="M270.799 521.963C270.799 521.963 257.494 524.839 245.622 523.052C234.483 521.387 209.55 523.113 209.563 537.74C209.563 554.105 242.819 550.066 255.781 547.471C268.743 544.876 281.668 542.575 281.668 542.575L270.799 521.963Z" fill="#525CEB"/>
<path d="M240.934 542.93C240.203 541.094 239.665 539.186 239.331 537.238C238.798 535.332 238.47 533.375 238.352 531.4C239.066 533.238 239.587 535.145 239.906 537.091C240.455 538.995 240.8 540.953 240.934 542.93Z" fill="#263238"/>
<path d="M245.475 543.15C244.513 539.295 243.971 535.347 243.859 531.375C244.443 533.275 244.821 535.233 244.985 537.214C245.355 539.17 245.519 541.16 245.475 543.15Z" fill="#263238"/>
<path d="M249.856 541.436C249.342 539.778 249.03 538.065 248.925 536.332C248.608 534.626 248.505 532.887 248.619 531.155C249.442 534.52 249.853 537.972 249.843 541.436H249.856Z" fill="#263238"/>
<path d="M256.735 539.784C255.884 538.45 255.306 536.961 255.034 535.402C254.556 533.888 254.39 532.294 254.544 530.714C255.012 532.197 255.38 533.71 255.646 535.243C256.116 536.729 256.48 538.246 256.735 539.784Z" fill="#263238"/>
<path d="M258.265 533.737C258.834 533.606 259.421 533.565 260.003 533.615C261.596 533.67 263.171 533.98 264.666 534.533C265.183 534.717 265.67 534.977 266.111 535.304C266.37 535.493 266.584 535.737 266.738 536.019C266.893 536.3 266.984 536.612 267.004 536.932C266.977 537.285 266.873 537.628 266.7 537.937C266.528 538.246 266.29 538.514 266.004 538.722C265.718 538.93 265.39 539.074 265.043 539.143C264.695 539.212 264.337 539.205 263.993 539.123C262.587 538.738 261.361 537.872 260.529 536.675C259.147 534.893 258.356 532.724 258.266 530.47C258.176 528.217 258.792 525.991 260.027 524.105C260.278 523.801 260.622 523.59 261.007 523.505C261.207 523.479 261.41 523.497 261.603 523.559C261.795 523.62 261.972 523.723 262.12 523.86C262.592 524.344 262.886 524.974 262.953 525.647C263.104 526.753 263.046 527.879 262.781 528.964C262.415 530.538 261.638 531.987 260.529 533.162C260.236 533.483 259.913 533.774 259.562 534.031C259.446 534.13 259.313 534.209 259.171 534.264C259.171 534.264 259.636 533.848 260.395 533.04C261.386 531.843 262.071 530.423 262.39 528.903C262.611 527.868 262.64 526.802 262.475 525.757C262.413 525.215 262.177 524.709 261.802 524.313C261.707 524.233 261.596 524.175 261.476 524.143C261.356 524.111 261.231 524.105 261.109 524.126C260.987 524.147 260.87 524.194 260.768 524.265C260.666 524.335 260.58 524.426 260.517 524.533C259.399 526.321 258.853 528.407 258.952 530.513C259.05 532.618 259.788 534.644 261.068 536.32C261.799 537.416 262.89 538.221 264.152 538.597C264.414 538.665 264.687 538.677 264.953 538.632C265.219 538.587 265.473 538.486 265.698 538.335C265.922 538.185 266.112 537.989 266.255 537.759C266.398 537.53 266.491 537.273 266.527 537.006C266.507 536.764 266.435 536.53 266.317 536.319C266.199 536.108 266.037 535.925 265.841 535.782C265.454 535.472 265.02 535.224 264.556 535.047C263.11 534.473 261.589 534.111 260.04 533.97C258.828 533.762 258.265 533.786 258.265 533.737Z" fill="#263238"/>
<path d="M280.357 540.408L280.027 540.518L279.023 540.763L275.167 541.644C271.814 542.379 266.942 543.419 260.896 544.582C254.849 545.745 247.627 547.03 239.525 548.168C235.282 548.865 230.975 549.083 226.685 548.817C224.401 548.663 222.144 548.232 219.965 547.532C218.845 547.152 217.764 546.668 216.734 546.088C215.658 545.512 214.699 544.739 213.906 543.811C213.463 543.403 213.076 542.938 212.756 542.428C212.131 541.354 211.748 540.158 211.631 538.922C211.515 537.685 211.669 536.438 212.082 535.267C212.883 533.007 214.373 531.055 216.342 529.686C218.195 528.381 220.239 527.369 222.401 526.687C223.466 526.381 224.494 526.014 225.546 525.781C226.599 525.549 227.639 525.292 228.68 525.145C237.015 523.835 244.592 524.496 250.908 524.496C254.066 524.557 256.918 524.496 259.415 524.325C261.549 524.171 263.674 523.901 265.779 523.517L268.08 523.027L269.733 522.562L270.749 522.281C270.863 522.24 270.983 522.216 271.104 522.207C271.104 522.207 270.994 522.269 270.773 522.342L269.77 522.685L268.129 523.211L265.841 523.762C263.726 524.189 261.588 524.495 259.439 524.68C256.93 524.863 254.066 524.986 250.871 524.949C244.555 525.01 236.979 524.386 228.753 525.72C227.725 525.867 226.709 526.149 225.669 526.369C224.628 526.589 223.625 526.969 222.572 527.262C220.47 527.928 218.484 528.915 216.685 530.188C214.825 531.483 213.416 533.328 212.658 535.463C212.278 536.546 212.137 537.698 212.242 538.841C212.348 539.983 212.698 541.09 213.27 542.085C213.562 542.536 213.912 542.948 214.31 543.309C215.058 544.155 215.949 544.864 216.942 545.402C217.932 545.964 218.973 546.431 220.051 546.798C222.183 547.473 224.391 547.884 226.624 548.022C230.872 548.289 235.137 548.088 239.341 547.422C247.419 546.357 254.653 545.072 260.7 543.97C266.746 542.868 271.63 541.889 275.008 541.228L278.888 540.469L279.892 540.286C280.054 540.293 280.213 540.334 280.357 540.408Z" fill="#263238"/>
<path d="M231.717 548.352C231.517 547.228 231.407 546.09 231.387 544.949C231.24 542.856 230.995 539.955 230.567 536.785C230.138 533.615 229.624 530.751 229.208 528.682C228.923 527.578 228.73 526.452 228.633 525.316C229.088 526.366 229.429 527.462 229.649 528.584C230.317 531.259 230.836 533.968 231.203 536.7C231.563 539.428 231.776 542.174 231.84 544.925C231.917 546.068 231.876 547.217 231.717 548.352Z" fill="#263238"/>
<path opacity="0.4" d="M266.699 522.672L275.133 543.786L281.669 542.575L269.147 521.963L266.699 522.672Z" fill="black"/>
<path d="M376.564 464.802C375.205 465.242 288.093 440.836 252.866 430.934C248.292 429.645 243.497 429.347 238.798 430.058C234.1 430.769 229.607 432.474 225.62 435.059L225.192 435.328C219.408 439.068 214.921 444.502 212.342 450.888C209.764 457.274 209.22 464.301 210.785 471.007C211.79 475.326 213.643 479.403 216.236 483C218.828 486.597 222.11 489.643 225.889 491.962C249.145 506.197 298.289 536.136 299.794 535.549C301.765 534.79 363.161 533.199 363.161 533.199L289.293 480.065L324.434 502.782L376.564 464.838V464.802Z" fill="#263238"/>
<path d="M303.835 438.29L322.354 428.706L340.518 440.089L408.499 442.317L418.291 475.365L319.881 452.55C319.881 452.55 301.974 454.141 300.628 450.102C299.281 446.062 303.835 438.29 303.835 438.29Z" fill="#FFBE9D"/>
<path d="M359.538 491.338L350.383 521.424L351.521 530.592C359.583 538.715 370.33 543.62 381.749 544.388C393.168 545.157 404.476 541.735 413.553 534.766C419.181 530.445 423.734 524.883 426.859 518.514C429.984 512.145 431.597 505.14 431.571 498.046L431.436 466.638L359.538 491.338Z" fill="#263238"/>
<path d="M305.021 491.534C304.923 491.669 294.299 483.921 281.3 474.227C268.301 464.532 257.836 456.552 257.946 456.417C258.056 456.283 268.668 464.018 281.68 473.712C294.691 483.407 305.131 491.387 305.021 491.534Z" fill="#455A64"/>
<path d="M321.104 434.704C318.159 435.982 315.133 437.065 312.046 437.947C309.021 439.019 305.93 439.898 302.793 440.579C305.737 439.298 308.763 438.214 311.851 437.335C314.876 436.261 317.966 435.382 321.104 434.704Z" fill="#EB996E"/>
<path d="M322.488 440.346C321.455 440.64 320.399 440.841 319.33 440.946C317.384 441.264 314.703 441.742 311.766 442.415C308.828 443.088 306.209 443.835 304.312 444.398C303.304 444.762 302.268 445.045 301.215 445.242C302.148 444.722 303.138 444.312 304.165 444.018C306.606 443.152 309.095 442.424 311.619 441.84C314.142 441.262 316.696 440.828 319.269 440.542C320.332 440.363 321.411 440.298 322.488 440.346Z" fill="#EB996E"/>
<path d="M320.933 445.536C317.587 446.532 314.181 447.317 310.737 447.886C307.331 448.67 303.882 449.246 300.406 449.612C303.758 448.622 307.167 447.837 310.614 447.262C314.016 446.479 317.462 445.903 320.933 445.536Z" fill="#EB996E"/>
<path d="M296.918 393.883L313.993 450.089C314.089 450.402 314.277 450.679 314.533 450.884C314.788 451.089 315.099 451.213 315.425 451.24L361.937 454.728C362.349 454.756 362.736 454.94 363.017 455.242C363.299 455.545 363.456 455.943 363.455 456.356V459.257C363.455 459.474 363.411 459.689 363.327 459.889C363.243 460.089 363.12 460.27 362.965 460.421C362.81 460.573 362.626 460.692 362.424 460.772C362.222 460.851 362.007 460.89 361.79 460.885L234.494 458.437C234.168 458.431 233.852 458.328 233.586 458.14C233.32 457.952 233.116 457.689 233.001 457.384L210.626 398.767C210.532 398.526 210.498 398.266 210.524 398.009C210.551 397.752 210.639 397.505 210.78 397.289C210.921 397.072 211.112 396.892 211.336 396.764C211.56 396.636 211.812 396.563 212.07 396.552L295.192 392.671C295.576 392.638 295.96 392.742 296.276 392.963C296.591 393.185 296.819 393.511 296.918 393.883Z" fill="#455A64"/>
<path d="M261.054 418.094C260.431 418.327 259.874 418.71 259.434 419.209C258.994 419.709 258.685 420.31 258.533 420.958C258.476 421.635 258.6 422.315 258.89 422.93C259.18 423.545 259.627 424.072 260.185 424.459C260.857 424.944 261.657 425.22 262.485 425.25C263.313 425.281 264.131 425.065 264.836 424.63C265.544 424.105 266.051 423.354 266.273 422.501C266.496 421.649 266.421 420.746 266.06 419.942C265.497 418.388 262.658 417.298 261.018 418.094" fill="#E0E0E0"/>
<path d="M281.667 542.575L268.203 520.445L367.102 442.929C373.255 437.882 380.781 434.799 388.706 434.079C394.48 433.555 400.298 434.299 405.754 436.261C411.209 438.223 416.169 441.355 420.286 445.437C424.403 449.519 427.577 454.452 429.586 459.891C431.594 465.329 432.389 471.141 431.913 476.919L430.334 495.83L364.752 516.969L281.667 542.575Z" fill="#263238"/>
<path d="M408.501 490.041C408.501 490.041 408.427 490.126 408.244 490.285L407.436 490.946L404.29 493.468L402.001 495.267C401.169 495.928 400.178 496.491 399.162 497.262L395.881 499.514C395.294 499.906 394.657 500.334 394.082 500.738L392.112 501.962C389.431 503.566 386.53 505.402 383.238 507.066C381.61 507.923 379.945 508.854 378.195 509.723L372.723 512.305C364.561 516.044 356.215 519.369 347.717 522.269C329.651 528.499 312.955 532.979 300.997 536.602C297.998 537.483 295.293 538.315 292.919 539.05C290.544 539.784 288.512 540.408 286.799 540.971L282.98 542.195L281.976 542.501C281.861 542.542 281.742 542.571 281.621 542.587L281.952 542.44L282.931 542.073L286.725 540.714C288.365 540.115 290.397 539.49 292.772 538.682C295.146 537.875 297.827 537.042 300.813 536.136C312.747 532.391 329.431 527.85 347.46 521.632C356.493 518.56 364.902 515.133 372.43 511.742L377.889 509.184C379.651 508.327 381.316 507.409 382.944 506.565C386.236 504.924 389.137 503.113 391.83 501.546L393.801 500.383C394.425 499.992 395.025 499.576 395.612 499.159L399.027 496.944C400.043 496.246 401.035 495.647 401.879 494.998L404.192 493.235L407.412 490.787L408.268 490.175L408.501 490.041Z" fill="#455A64"/>
<path d="M410.899 500.383C410.596 500.606 410.262 500.784 409.907 500.91C409.246 501.204 408.28 501.607 407.068 502.048C403.907 503.213 400.667 504.154 397.374 504.863C394.077 505.567 390.736 506.041 387.374 506.283C386.088 506.369 385.036 506.406 384.314 506.406C383.937 506.433 383.559 506.413 383.188 506.344C384.56 506.097 385.945 505.926 387.337 505.83C389.883 505.549 393.457 505.059 397.239 504.239C401.021 503.419 404.473 502.415 406.921 501.632C408.223 501.144 409.551 500.727 410.899 500.383Z" fill="#455A64"/>
<path d="M363.16 446.65C363.271 446.797 342.108 463.431 315.889 483.798C289.671 504.166 268.325 520.592 268.227 520.445C268.129 520.298 289.28 503.676 315.498 483.296C341.716 462.917 363.062 446.515 363.16 446.65Z" fill="#455A64"/>
<path d="M357.411 528.903C352.674 526.381 347.35 527.874 342.809 529.404C339.785 530.42 336.689 532.036 333.58 531.167C331.364 530.543 329.712 528.719 328.01 527.189C324.578 524.032 320.548 521.595 316.159 520.021C311.77 518.446 307.11 517.766 302.453 518.021C299.794 518.149 297.283 519.282 295.428 521.191C290.764 526.247 294.277 532.807 298.451 537.103C305.887 544.662 315.707 549.418 326.248 550.567C334.926 551.473 346.86 550.274 355.624 546.504C361.046 544.178 363.825 537.777 360.985 532.611C360.184 531.051 358.941 529.761 357.411 528.903Z" fill="#525CEB"/>
<g opacity="0.4">
<path d="M357.411 532.942C352.662 530.42 347.338 531.914 342.796 533.444C339.773 534.46 336.676 536.075 333.567 535.206C331.352 534.582 329.7 532.758 327.998 531.228C324.566 528.072 320.536 525.634 316.147 524.06C311.758 522.485 307.097 521.805 302.441 522.06C299.782 522.189 297.271 523.322 295.415 525.231C294.477 526.232 293.803 527.452 293.457 528.78C294.355 531.931 296.075 534.786 298.439 537.054C305.875 544.613 315.695 549.369 326.236 550.518C334.914 551.424 346.848 550.225 355.612 546.455C357.168 545.793 358.545 544.773 359.632 543.477C360.719 542.182 361.485 540.648 361.866 539.001C361.591 537.736 361.047 536.545 360.272 535.509C359.497 534.472 358.509 533.613 357.374 532.991L357.411 532.942Z" fill="black"/>
</g>
<path d="M361.938 538.952C361.732 537.948 361.337 536.993 360.775 536.136C360.095 535.166 359.235 534.335 358.241 533.688C356.932 532.804 355.437 532.234 353.871 532.024C350.358 531.608 346.27 533.089 341.742 534.313C339.502 534.912 337.054 535.818 334.398 535.537C333.055 535.363 331.763 534.913 330.603 534.215C329.449 533.495 328.359 532.676 327.347 531.767C323.654 528.257 319.221 525.622 314.373 524.056C312.278 523.344 310.117 522.844 307.922 522.562C306.015 522.287 304.077 522.287 302.17 522.562C300.61 522.798 299.108 523.321 297.739 524.105C296.713 524.699 295.785 525.446 294.985 526.32C293.761 527.85 293.308 528.89 293.234 528.841C293.614 527.872 294.143 526.967 294.801 526.161C295.564 525.199 296.483 524.372 297.518 523.713C298.916 522.858 300.467 522.284 302.084 522.024C304.032 521.734 306.011 521.734 307.959 522.024C310.193 522.291 312.394 522.779 314.532 523.48C316.891 524.264 319.17 525.273 321.337 526.491C322.493 527.13 323.601 527.85 324.654 528.646C325.719 529.478 326.711 530.384 327.739 531.265C328.723 532.171 329.784 532.99 330.909 533.713C331.993 534.357 333.196 534.774 334.446 534.937C336.894 535.267 339.342 534.411 341.582 533.823C346.099 532.599 350.248 531.167 353.933 531.644C355.356 531.85 356.721 532.354 357.936 533.124C359.151 533.894 360.189 534.912 360.983 536.112C361.4 536.769 361.698 537.494 361.864 538.254C361.913 538.483 361.938 538.717 361.938 538.952Z" fill="#263238"/>
<path d="M361.938 538.952C361.732 537.948 361.337 536.993 360.775 536.136C360.095 535.166 359.235 534.335 358.241 533.688C356.932 532.804 355.437 532.234 353.871 532.024C350.358 531.608 346.27 533.089 341.742 534.313C339.502 534.912 337.054 535.818 334.398 535.537C333.055 535.363 331.763 534.913 330.603 534.215C329.449 533.495 328.359 532.676 327.347 531.767C323.654 528.257 319.221 525.622 314.373 524.056C312.278 523.344 310.117 522.844 307.922 522.562C306.015 522.287 304.077 522.287 302.17 522.562C300.61 522.798 299.108 523.321 297.739 524.105C296.713 524.699 295.785 525.446 294.985 526.32C293.761 527.85 293.308 528.89 293.234 528.841C293.614 527.872 294.143 526.967 294.801 526.161C295.564 525.199 296.483 524.372 297.518 523.713C298.916 522.858 300.467 522.284 302.084 522.024C304.032 521.734 306.011 521.734 307.959 522.024C310.193 522.291 312.394 522.779 314.532 523.48C316.891 524.264 319.17 525.273 321.337 526.491C322.493 527.13 323.601 527.85 324.654 528.646C325.719 529.478 326.711 530.384 327.739 531.265C328.723 532.171 329.784 532.99 330.909 533.713C331.993 534.357 333.196 534.774 334.446 534.937C336.894 535.267 339.342 534.411 341.582 533.823C346.099 532.599 350.248 531.167 353.933 531.644C355.356 531.85 356.721 532.354 357.936 533.124C359.151 533.894 360.189 534.912 360.983 536.112C361.4 536.769 361.698 537.494 361.864 538.254C361.913 538.483 361.938 538.717 361.938 538.952Z" fill="#263238"/>
<path d="M303.102 537.801C303.848 537.147 304.67 536.585 305.55 536.124C307.582 534.896 309.678 533.776 311.829 532.77C313.98 531.756 316.182 530.854 318.426 530.065C319.339 529.693 320.292 529.426 321.266 529.27C320.412 529.76 319.515 530.17 318.585 530.494C316.908 531.192 314.607 532.171 312.098 533.346C309.589 534.521 307.373 535.671 305.77 536.516C304.926 537.033 304.032 537.463 303.102 537.801Z" fill="#263238"/>
<path d="M304.777 542.55C307.765 540.752 310.859 539.138 314.043 537.715C317.137 536.106 320.325 534.683 323.59 533.456C320.602 535.254 317.508 536.868 314.325 538.291C311.233 539.906 308.044 541.328 304.777 542.55Z" fill="#263238"/>
<path d="M324.36 544.607C324.262 544.753 319.207 541.742 313.075 537.875C306.942 534.007 302.059 530.739 302.059 530.592C302.059 530.445 307.199 533.456 313.344 537.336C319.488 541.216 324.482 544.46 324.36 544.607Z" fill="#263238"/>
<path d="M327.225 539.686C326.36 539.211 325.541 538.658 324.777 538.034C323.296 536.957 321.24 535.475 318.939 533.884C316.637 532.293 314.544 530.885 313.014 529.87C312.142 529.374 311.322 528.791 310.566 528.132C311.498 528.488 312.388 528.943 313.222 529.49C314.814 530.408 316.98 531.767 319.342 533.358C321.705 534.949 323.675 536.504 325.095 537.679C325.886 538.257 326.601 538.931 327.225 539.686Z" fill="#263238"/>
</svg>
